<svg xmlns="http://www.w3.org/2000/svg" xmlns:xlink="http://www.w3.org/1999/xlink" width="155.092" height="28.529" viewBox="0 0 155.092 28.529"><defs><style>.a{fill:url(#a);}.b{fill:#fff;}</style><linearGradient id="a" x1="0.117" y1="0.821" x2="0.883" y2="0.179" gradientUnits="objectBoundingBox"><stop offset="0" stop-color="#002c50"/><stop offset="0.207" stop-color="#00467c"/><stop offset="0.872" stop-color="#4caa4a"/></linearGradient></defs><path class="a" d="M83.651,78.995a5.028,5.028,0,1,0-5.027,5.028,5.038,5.038,0,0,0,5.027-5.028" transform="translate(-64.38 -64.75)"/><path class="b" d="M108.852,49.1h-8.605a.683.683,0,0,1-.675-.682V45.628a.678.678,0,0,1,.675-.677h8.605a.686.686,0,0,1,.681.677v2.829A.691.691,0,0,1,108.852,49.1Zm0,24.382h-8.6a.664.664,0,0,1-.678-.677V51.359a.69.69,0,0,1,.679-.7h8.6a.692.692,0,0,1,.681.676V72.828A.68.68,0,0,1,108.854,73.48Zm40.866-9.268H136.553c0,1.92.8,2.938,3.825,2.938l8.1,0a.642.642,0,0,1,.67.667v4.979a.69.69,0,0,1-.67.688H138.317c-6.581,0-11-2.688-11-9.907V61.064c0-7.372,4.25-10.79,11.811-10.79,8.227,0,11.261,4.263,11.261,10.79v2.476A.665.665,0,0,1,149.719,64.212Zm-10.677-7.487c-1.823,0-2.489,1.343-2.489,3.186h5.026C141.579,58.069,141.044,56.725,139.043,56.725ZM176.261,73.48H167.7a.668.668,0,0,1-.672-.674V58.613c0-1.343-1.023-1.882-2.269-1.882a5.7,5.7,0,0,0-2.446.576v15.5a.684.684,0,0,1-.682.674h-8.559a.66.66,0,0,1-.676-.674V51.335a.677.677,0,0,1,.676-.676h7.763a.684.684,0,0,1,.678.676V52.5c2.09-1.459,3.513-2.228,7.293-2.228,6.537,0,8.138,4.108,8.138,8.909V72.806A.687.687,0,0,1,176.261,73.48Zm13.113-16.509h8.132a.7.7,0,0,0,.708-.765V51.424a.677.677,0,0,0-.708-.765H185.548c-3.467,0-6.823,1.329-6.823,6.29v1.845c0,3.745,2.06,6.456,6.653,6.456h3.929a.948.948,0,0,1-.026,1.9h-9.847a.687.687,0,0,0-.708.766v4.8a.677.677,0,0,0,.708.765h13.6c3.467,0,6.645-1.438,6.645-6.4,0,0,0-1.916,0-1.922-.037-3.685-1.9-6.291-6.438-6.291h-3.869a.967.967,0,0,1-.948-.951A.982.982,0,0,1,189.374,56.971ZM97.447,72.716V67.908a.741.741,0,0,0-.708-.766H90.867a1.315,1.315,0,0,1-1.309-1.305V45.628a.666.666,0,0,0-.709-.677H79.614a.669.669,0,0,0-.677.677V66.815c0,4.961,2.807,6.666,6.275,6.666H96.738A.677.677,0,0,0,97.447,72.716Zm27.594-15.76h-3.455v8.882a1.331,1.331,0,0,0,1.263,1.309H124.9a.691.691,0,0,1,.683.674V72.8a.691.691,0,0,1-.683.676H117.25c-3.373,0-5.626-2.274-5.626-7.1V45.628a.69.69,0,0,1,.68-.677h8.61a.679.679,0,0,1,.671.677v5.031h3.455a.685.685,0,0,1,.68.673V56.28A.7.7,0,0,1,125.04,56.956Zm-66.212-12a14.229,14.229,0,0,0-5.028.912v9.317a6.427,6.427,0,0,1,11.465,4.025l.013,4.9a.746.746,0,0,0-.019.1v8.485a.753.753,0,0,0,.719.778h6.373a.753.753,0,0,0,.72-.778V59.2A14.244,14.244,0,0,0,58.828,44.956Zm0,28.514a14.221,14.221,0,0,0,5.027-.913V63.241a6.427,6.427,0,0,1-11.464-4.025l-.014-4.9a.7.7,0,0,0,.02-.1V45.734a.752.752,0,0,0-.719-.778H45.3a.753.753,0,0,0-.72.778V59.227A14.244,14.244,0,0,0,58.828,73.471Z" transform="translate(-44.585 -44.951)"/></svg>