<?xml version="1.0" encoding="UTF-8"?>
<svg id="art" xmlns="http://www.w3.org/2000/svg" viewBox="0 0 781.05 300">
  <defs>
    <style>
      .cls-1 {
        fill: #f6f6f6;
      }

      .cls-1, .cls-2, .cls-3, .cls-4 {
        stroke-width: 0px;
      }

      .cls-2 {
        fill: #fff;
      }

      .cls-3 {
        fill: #807f83;
      }

      .cls-4 {
        fill: #4f2683;
      }
    </style>
  </defs>
  <rect class="cls-1" width="781.05" height="300" rx="3" ry="3"/>
  <g>
    <path class="cls-4" d="m370.23,91.15c-.81.91-1.9,1.42-3.22,1.42-2.95,0-4.77-1.22-9.29-1.22-7.73,0-13.72,4.2-13.72,11.83,0,15.61,23.93,12.28,23.93,23.5,0,5.08-3.7,7.49-8.29,7.49-8.57,0-13.61-5.58-15.49-13.76h-2.13l2.87,15.71c.93-1.09,2.15-1.48,3.37-1.48,2.47,0,5.6,1.89,11.17,1.89,8.93,0,15.69-4.97,15.69-13.44,0-16.94-24.3-12.47-24.3-23.41,0-3.48,2.48-6.06,6.96-6.06,7.1,0,11.07,5.02,12.78,10.97h2.1l-2.43-13.42h0Zm121.3,42.18v2.19h23.4v-2.19h-6.92v-22.79c0-8.15,4.2-16.04,12.13-16.04,4.46,0,7.16,2.52,7.16,9.12v29.72h-6.92v2.19h22.79v-2.19h-6.92v-29.45c0-8.76-4.29-12.54-12.88-12.54-7.19,0-12.45,3.51-15.16,9.47h-.18v-9.65c-1.18.97-2.78,2.11-6.67,2.11h-9.28v2.19h7.01v37.86h-7.54Zm-85.41-5.33c-1.14,2.55-2.96,5.06-6.21,5.06s-4.72-2.09-4.72-7.26v-30.33h10.78v-2.19h-10.78v-14.48h-1.85c-1.2,9.35-5.89,14.13-14.38,14.94v1.72h0s7.1,0,7.1,0v29.98c0,5.61,1.09,10.96,10.21,10.96,5.75,0,9.24-2.65,11.05-6.09l.7-1.4-1.9-.9h0Zm83.12-30.56c0-3.47-2.57-6.1-7.34-6.1-7.13,0-10.67,6.4-12.51,11.48h-.11v-11.83c-1.42,1.16-2.85,2.29-6.64,2.29h-9.84v2.19h7.54v37.86h-7.54v2.19h23.75v-2.19h-7.28v-18.67c0-9.93,4.88-20.72,11.14-20.72.47,0,.78.06,1.04.18-1.08.87-1.76,2.19-1.76,3.68,0,2.76,2.11,4.72,4.72,4.72,2.84,0,4.82-2.36,4.82-5.07h0Zm-155.18,25.96c-2.47,5.82-6.6,10.45-14.16,10.45-11.31,0-12.97-8.62-12.97-21.83v-.7h29.1c0-11.75-6.51-19.81-18.67-19.81-13.26,0-20.42,10.22-20.42,22.53s6.72,22.53,20.34,22.53c8.43,0,15.27-3.18,18.84-12.5l-2.05-.67h0Zm-27.06-16.77c.48-6.53,2.86-12.86,9.74-12.86,7.32,0,8.93,5.72,9.1,11.78.01.56.02,2.52.02,3.06h-18.93c0-.59.04-1.37.08-1.98Zm140.38,16.77c-2.47,5.82-6.6,10.45-14.16,10.45-11.31,0-12.97-8.62-12.97-21.83v-.7h29.1c0-11.75-6.51-19.81-18.67-19.81-13.26,0-20.42,10.22-20.42,22.53s6.72,22.53,20.34,22.53c8.42,0,15.27-3.18,18.84-12.5l-2.05-.67Zm-27.06-16.77c.48-6.53,2.86-12.86,9.74-12.86,7.32,0,8.93,5.72,9.09,11.78.01.56.02,2.52.02,3.06h-18.93c0-.59.04-1.37.08-1.98Zm-161.38-15.68c-3.84,11.1-15.85,45.5-15.85,45.5h-1.8l-19.61-53.38-3.22-8.5h-6.09v-2.15h25.16v2.15h-7.88l2.42,7.16,13.7,37.79h.18l11.37-32.86-4.48-12.09h-7.61v-2.15h27.4v2.15h-8.86l2.42,6.98,13.88,37.97h.18l12.36-37.79,2.06-7.16h-7.88v-2.15h17.82v2.15h-6.36l-2.78,7.88-17.73,54h-1.88l-16.93-45.5h0Z"/>
    <g>
      <path class="cls-3" d="m270.4,217.57s-1.96-1.07-4.73-1.07h-45.46v-2.14h8.31l.09-7.5v-43.77l-.09-7.5h-8.31v-2.14h43.41c2.68,0,4.73-1.07,4.73-1.07l4.29,20.72h-2.32c-3.93-12.06-7.95-17.15-21.08-17.15h-10.81l-.09,7.15v19.83h5.63c6.61,0,10.09-1.88,10.09-10.63v-2.68h2.41v30.01h-2.41v-3.48c0-7.86-1.61-10.72-10.27-10.72h-5.45v21.53l.09,7.23h12.24c12.77,0,18.94-7.5,21.97-19.29h2.59l-4.82,22.69h0Z"/>
      <path class="cls-3" d="m286.96,214.36l.09-7.68.09-24.47-.09-5.81h-7.06v-2.23h9.29c3.93,0,5.54-1.16,6.7-2.05v9.82h.18c2.68-5.89,7.95-9.38,15.09-9.38,8.57,0,12.86,3.75,12.86,12.5v21.61l.09,7.68h6.88v2.05h-22.78v-2.05h6.7l.18-7.68v-21.17c0-4.82-.89-9.83-6.97-9.83-8.13,0-12.24,7.86-12.24,15.99v15.01l.09,7.68h6.79v2.05h-23.31v-2.05h7.42Z"/>
      <path class="cls-3" d="m374.46,181.75c-1.96,0-3.48-1.61-3.48-3.57,0-1.16.54-2.23,1.52-2.86-.27-.09-.54-.18-.89-.18-2.95,0-4.47,2.68-4.91,3.39,1.16,2.32,2.05,3.93,2.05,7.32,0,8.22-5.36,14.47-15.18,14.47-5.54,0-8.4-1.88-10.54-3.39-1.43.8-3.3,2.14-3.3,4.64,0,3.93,4.11,4.2,7.95,4.47,1.96.09,9.02.27,11.25.45,9.11.54,15.99,3.57,15.99,13.84,0,12.33-11.7,15.63-21.17,15.63-16.61,0-20.19-7.5-20.19-12.24,0-6.61,7.06-9.82,10.72-10.63-4.65-1.16-7.95-4.65-7.95-9.74,0-4.2,2.77-6.7,5.09-8.04-1.16-1.43-3.48-4.11-3.48-8.84,0-7.95,5.72-14.11,15.72-14.11,6.61,0,9.29,2.23,11.52,4.11,1.16-1.52,3.22-3.57,6.79-3.57,3.04,0,5.99,1.96,5.99,5.18,0,1.96-1.52,3.66-3.48,3.66h0Zm-20.01,32.78c-8.4-.18-16.08,1.07-16.08,9.11,0,7.06,7.5,10,15.45,10,10,0,17.86-3.93,17.86-10.54,0-8.31-9.91-8.49-17.24-8.57Zm-.98-40.1c-6.61,0-6.79,7.15-6.79,12.77s.98,10.9,6.79,10.9c6.7,0,6.7-7.15,6.7-13.49,0-2.77,0-10.18-6.7-10.18Z"/>
      <path class="cls-3" d="m397.77,182.91v23.85l.09,7.59h7.15v2.14h-23.76v-2.14h7.68l.09-7.59v-23.85l-.09-6.52h-7.77v-2.23h10.09c3.93,0,5.54-1.16,6.7-2.05l-.18,10.81h0Zm-4.65-18.49c2.77,0,5.18-2.32,5.18-5.18s-2.41-5.27-5.18-5.27c-2.95,0-5.27,2.41-5.27,5.27s2.41,5.18,5.27,5.18Z"/>
      <path class="cls-3" d="m417.13,214.36l.09-7.68.09-24.47-.09-5.81h-7.06v-2.23h9.29c3.93,0,5.54-1.16,6.7-2.05v9.82h.18c2.68-5.89,7.95-9.38,15.1-9.38,8.57,0,12.86,3.75,12.86,12.5v21.61l.09,7.68h6.88v2.05h-22.78v-2.05h6.7l.18-7.68v-21.17c0-4.82-.89-9.83-6.97-9.83-8.13,0-12.24,7.86-12.24,15.99v15.01l.09,7.68h6.79v2.05h-23.31v-2.05h7.42Z"/>
      <path class="cls-3" d="m503.41,204.89c-3.57,9.29-10.45,12.5-18.85,12.5-13.66,0-20.36-9.74-20.36-22.51s7.15-22.6,20.45-22.6c12.15,0,18.67,8.04,18.67,19.83h-29.12v.71c0,13.22,1.7,21.88,12.95,21.88,7.59,0,11.7-4.65,14.2-10.54l2.05.71h0Zm-29.21-15.27h18.94v-3.3c-.18-6.08-1.79-11.79-9.11-11.79-6.88,0-9.29,6.34-9.74,12.86-.09.63-.09,1.61-.09,2.23h0Z"/>
      <path class="cls-3" d="m547.98,204.89c-3.57,9.29-10.45,12.5-18.85,12.5-13.67,0-20.37-9.74-20.37-22.51s7.15-22.6,20.45-22.6c12.15,0,18.67,8.04,18.67,19.83h-29.12v.71c0,13.22,1.7,21.88,12.95,21.88,7.59,0,11.7-4.65,14.2-10.54l2.06.71h0Zm-29.21-15.27h18.94v-3.3c-.18-6.08-1.79-11.79-9.11-11.79-6.88,0-9.29,6.34-9.73,12.86-.09.63-.09,1.61-.09,2.23h0Z"/>
      <path class="cls-3" d="m581.79,183.63c-2.68,0-4.73-2.14-4.73-4.73,0-1.52.71-2.86,1.79-3.75-.27-.09-.62-.18-1.16-.18-6.25,0-11.16,10.81-11.16,20.9v10.9l.09,7.5h7.24v2.23h-23.94v-2.23h7.5l.09-7.5v-30.37h-7.59v-2.23h9.91c3.84,0,5.27-1.16,6.7-2.41v12.15h.09c1.88-5.09,5.45-11.61,12.68-11.61,4.73,0,7.5,2.68,7.5,6.34,0,2.68-2.23,5-5,5h0Z"/>
      <path class="cls-3" d="m607.06,182.91v23.85l.09,7.59h7.15v2.14h-23.76v-2.14h7.68l.09-7.59v-23.85l-.09-6.52h-7.77v-2.23h10.09c3.93,0,5.54-1.16,6.7-2.05l-.18,10.81h0Zm-4.65-18.49c2.77,0,5.18-2.32,5.18-5.18s-2.41-5.27-5.18-5.27c-2.95,0-5.27,2.41-5.27,5.27s2.41,5.18,5.27,5.18Z"/>
      <path class="cls-3" d="m625.81,214.36l.09-7.68.09-24.47-.09-5.81h-7.06v-2.23h9.29c3.93,0,5.54-1.16,6.7-2.05v9.82h.18c2.68-5.89,7.95-9.38,15.09-9.38,8.58,0,12.86,3.75,12.86,12.5v21.61l.09,7.68h6.88v2.05h-22.78v-2.05h6.7l.18-7.68v-21.17c0-4.82-.89-9.83-6.97-9.83-8.13,0-12.24,7.86-12.24,15.99v15.01l.09,7.68h6.79v2.05h-23.31v-2.05h7.41Z"/>
      <path class="cls-3" d="m713.31,181.75c-1.96,0-3.48-1.61-3.48-3.57,0-1.16.54-2.23,1.52-2.86-.27-.09-.54-.18-.89-.18-2.95,0-4.47,2.68-4.91,3.39,1.16,2.32,2.05,3.93,2.05,7.32,0,8.22-5.36,14.47-15.18,14.47-5.54,0-8.4-1.88-10.54-3.39-1.43.8-3.3,2.14-3.3,4.64,0,3.93,4.11,4.2,7.95,4.47,1.96.09,9.02.27,11.25.45,9.11.54,15.99,3.57,15.99,13.84,0,12.33-11.7,15.63-21.17,15.63-16.61,0-20.19-7.5-20.19-12.24,0-6.61,7.06-9.82,10.72-10.63-4.65-1.16-7.95-4.65-7.95-9.74,0-4.2,2.77-6.7,5.09-8.04-1.16-1.43-3.48-4.11-3.48-8.84,0-7.95,5.72-14.11,15.72-14.11,6.61,0,9.29,2.23,11.52,4.11,1.16-1.52,3.22-3.57,6.79-3.57,3.04,0,5.99,1.96,5.99,5.18,0,1.96-1.52,3.66-3.48,3.66h0Zm-20.01,32.78c-8.4-.18-16.08,1.07-16.08,9.11,0,7.06,7.5,10,15.45,10,10,0,17.86-3.93,17.86-10.54,0-8.31-9.91-8.49-17.24-8.57h0Zm-.98-40.1c-6.61,0-6.79,7.15-6.79,12.77s.98,10.9,6.79,10.9c6.7,0,6.7-7.15,6.7-13.49,0-2.77,0-10.18-6.7-10.18Z"/>
    </g>
    <g>
      <path class="cls-2" d="m186.95,127.21v-55.09c-14.26-5.04-36.64-8.3-61.88-8.3s-46.78,3.24-61.03,8.3v55.89c-.01,8.24-.38,22.82,7.11,40.28,9.3,21.68,27.31,37.98,53,48.2l1.33.54,1.32-.54c25.72-10.22,43.72-26.52,53.02-48.2,7.49-17.46,7.12-33.18,7.12-41.08h0Z"/>
      <path class="cls-4" d="m186.95,127.21v-55.09c-14.26-5.04-36.64-8.3-61.88-8.3s-46.78,3.24-61.03,8.3v55.89c-.01,8.24-.38,22.82,7.11,40.28,9.3,21.68,27.31,37.98,53,48.2l1.33.54,1.32-.54c25.72-10.22,43.72-26.53,53.02-48.21,7.49-17.46,7.12-33.18,7.12-41.08h0Zm-48.02,60.27c-.28.09-.61.21-.87.34-.18.09-.28.14-.3.28-.02.1.09.24.15.31-.16.59-1.56.51-2.01.68-.39.14-.85.57-1.11.85-.26.29-.17.22-.59.3-.75.16-.59.85-.36,1.39.23.55.62.99,1.12,1.31.18.12.98.43,1.4.43-.41.45-.99.34-1.52.55-.29.12-.55.29-.88.36-.44.09-.66.06-1.02,0-.56-.11-1.01-.08-1.48-.03-.35.04-.65,0-.96-.18-.13-.07-.41-.27-.54-.3-.42-.07-.08.57,0,.79-.58.56-1.91-.21-2.44-.54-.47-.28-.71-.93-1.24-1.1-.04.56,0,1.12.01,1.68.07,1.71.11,3.42.16,5.13.03,1,.05,2.01.09,3.01h-1.89l.23-9.9c-.61.04-.84.6-1.34.81-.3.13-.62.07-.9.25-.3.2-.42.45-.77.61-.29.13-.66.18-.98.17-.41,0-.85-.08-1.08-.31.2-.36,0-.73-.25-.87-.29-.15-.7.08-.95.14-1.31.33-2.85-.48-4.04-.93,0,0,2.88-.49,2.88-2.17,0-.47-.22-.85-.58-1.15-.33-.27-.97-.61-1.41-.67-.72-.11-1.21.08-1.65-.1.06-.23-.33-.55-.63-.76-.28-.2-.64-.31-.95-.47-.58-.3-1.44-.84-1.2-1.59.46.23.91.29,1.33.07.33-.18.45-.44.45-.83,0-.53-.59-.89-.8-1.29-.16-.32-.31-.62-.61-.86-.27-.21-.73-.28-.74-.68.55.22.71-.27.38-.64-.37-.41-.85-.61-1.13-1.12-.24-.45-.43-.99-.43-1.51,0-.15.03-.6.25-.64.21-.04.28.23.36.36.34.5.85.75,1.36,1.01.65.32.89.49,1.6.62,1.4.25,2.29.04,3.09-.7.14-.13.49-.37.65-.39.28.39,1.02,1.16,1.73,1.37.54.15,1.15.91,1.42,1.15.96.84,1.56.36,1.55-.44,0-.67-.25-1.55-.4-2.19-.23-1.04-.44-1.56-.58-2.64-.08-.66-.46-1.22-.7-1.68-.24-.46-.59-1.66.28-1.24.36.17.9.5,1.34.44,1.02-.14,1.15-1.26,1.35-2.09.1-.43.11-.79.27-1.22.08-.25.21-.4.34-.4.04.13.18.36.4.36.4,0,.73-.67.83-1.08.08-.34.15-.74.25-1.05.18-.52.22-1.14.5-1.72.1.39.27,1.08.37,1.31.23.62.44,1.23.81,1.74.31.44.7.57,1.19.31.25.58.25,2.48.74,3.37.29.53.66.72,1.11.72.4,0,.68-.12.97-.29.35-.21.74-.48,1-.48.12,0,.19.06.19.17,0,.4-.62,1.48-.7,1.71-.19.52-.49,1.1-.65,1.63-.13.43-.26.99-.36,1.44-.1.51-.19,1.11-.23,1.92-.02.48.01,1.34.38,1.6.53.36,1.19-.35,1.61-.68.52-.4.95-.78,1.34-1.31.29-.39.86-1.41,1.4-1.36-.01.41.57.99,1.44,1.12.54.08.96-.03,1.28-.26.4-.29.43-.27.89-.11.98.38,2.62-.91,3.2-1.37.2.21.01.59-.24.98-.47.71-.99.93-1.01,1.46-.01.46-.58,1.33-.53,1.84-.17.3-.72.62-.96.83-.72.61-1.16,1.32-.9,2.28.22.84.91,1.24,1.55,1.24s1.07-.43,1.28-.33c.13.08-.19.48-.32.58-.35.31-.92.53-1.32.65h0Zm36.69-77.97h-100.2l-6.4-6.72,12.78,4.26c-1.05-3.19-3.97-4.29-5.86-7.01-1.12-1.62-1.5-3.21-1.38-4.86.34.59.96,1.4,1.93,2.07.92.64,2.16,1.13,3.85,1.5,3.02.65,4.58,1.61,5.91,2.83l-6.55-11.71,11.27,7.27c-.47-3.35-2.78-5.09-3.93-8.19-.68-1.84-.66-3.5-.13-5.07.18.66.58,1.6,1.35,2.48.74.84,1.82,1.63,3.37,2.41,2.85,1.43,4.13,2.78,5.12,4.36l-3.47-13.12,9.06,9.79c.37-3.29-1.42-5.56-1.76-8.83-.2-1.96.21-3.57,1.12-4.96.01.68.16,1.69.69,2.74.5,1,1.34,2.04,2.65,3.17,2.5,2.18,3.36,3.84,3.93,5.7l-.1-13.77,6.31,11.67c1.23-2.96-.07-5.68.41-8.91.29-1.95,1.14-3.43,2.37-4.55-.15.66-.26,1.68,0,2.82.23,1.09.8,2.31,1.78,3.73,1.93,2.79,2.32,4.63,2.4,6.62h.02s3.36-13.5,3.36-13.5l3.22,12.95c1.95-2.67,1.44-5.69,2.73-8.72.77-1.81,1.95-2.89,3.41-3.67-.32.6-.67,1.56-.72,2.73-.05,1.12.2,2.43.8,4.06,1.13,3.09,1.07,4.96.67,6.84l6.53-12.08-.1,13.29c2.53-1.99,2.72-5.15,4.7-7.75,1.2-1.56,2.63-2.31,4.25-2.7-.46.51-1.04,1.34-1.38,2.46-.32,1.08-.41,2.41-.24,4.13.34,3.36-.2,5.17-1.09,6.93h.01s9.44-10.2,9.44-10.2l-3.39,12.81c2.84-1.36,3.87-4.07,6.42-6.08,1.54-1.22,3.1-1.81,4.76-1.79-.57.38-1.34,1.05-1.94,2.05-.58.96-1,2.23-1.26,3.94-.51,3.32-1.46,4.95-2.75,6.43l.05.04,11.68-7.54-6.45,11.54c3.15-.45,4.67-2.96,7.62-4.26,1.8-.79,3.5-1,5.11-.57-.65.23-1.56.68-2.39,1.5-.8.79-1.52,1.91-2.2,3.51-1.31,3.08-2.63,4.4-4.25,5.52l.07.08,13.19-4.39-6.41,6.72h0Zm-51.95,28.36c-.18-.3-.87-1.87-4.71-1.87h-11.22v-18.13h.83v17.31h10.26c.78,0,1.46.04,2.04.14,2.07.33,2.93,1.16,3.34,1.73h2.63c.39-.58,1.22-1.4,3.27-1.73.58-.09,1.24-.14,2.03-.14h10.29v-17.25h.83v18.08h-11.25c-3.84,0-4.47,1.58-4.61,1.87h-3.71Zm1.37-3.08v.88c-1.57-2.94-8.7-2.46-14.76-1.85v-16.81c3.27-.03,6.49-.48,9-.48,3.19,0,5.38.49,5.76,2.34v15.11c-1.94-2.31-7.75-2.09-13.81-1.51v.48c6.01-.58,12.35-.77,13.81,1.84h0Zm-12.69-6.62c.72-.01,1.47-.03,2.07-.03.77,0,1.42.02,2.06.03v-.34h-.33c-1.01,0-1.1-.1-1.1-.78v-2.92c0-.8.12-.85.8-.85h.63v-.34c-.66.01-1.35.03-2.06.03-.65,0-1.38-.02-2.07-.03v.34h.63c.68,0,.8.06.8.85v2.92c0,.67-.08.78-1.1.78h-.33v.34h0Zm7.22-3.56c-.78-.47-1.34-1.16-1.34-2.03,0-.75.55-2.1,2.33-2.1,1.42,0,2.03.89,2.03,1.69s-.3,1.33-1.49,1.87c1.15.58,1.66,1.21,1.66,2.11,0,1.25-.98,2.16-2.48,2.16-1.34,0-2.2-.93-2.2-1.9,0-1.06.83-1.59,1.47-1.8h0Zm2,2.09c0-.66-.31-1.09-1.68-1.92-.61.32-.92.95-.92,1.53,0,1.07.75,1.59,1.37,1.59.86,0,1.24-.63,1.24-1.2Zm-.72-2.82c.53-.41.88-.84.88-1.59,0-.85-.58-1.4-1.24-1.4-.75,0-1.16.61-1.16,1.24,0,.67.47,1.13,1.52,1.75h0Zm10.82-7.34c2.52,0,5.69.47,9.03.48v16.81c-6.07-.61-13.2-1.09-14.77,1.85v-.88c1.42-2.65,7.8-2.42,13.84-1.84v-.48c-6.09-.59-11.92-.83-13.84,1.51v-15.11c.38-1.85,2.57-2.33,5.74-2.34Zm-3.97,8.3h.34l.27-.71h3.15l-3.08,6.3.58.16,3.83-7.55-.08-.1h-4.71l-.29,1.9h0Zm7.6-.23c-.79-.47-1.34-1.16-1.34-2.03,0-.75.55-2.1,2.33-2.1,1.42,0,2.04.89,2.04,1.69s-.3,1.33-1.49,1.87c1.15.58,1.67,1.21,1.67,2.11,0,1.25-.98,2.16-2.48,2.16-1.35,0-2.2-.93-2.2-1.9,0-1.06.84-1.59,1.47-1.8Zm2,2.09c0-.66-.31-1.09-1.68-1.92-.61.32-.93.95-.93,1.53,0,1.07.75,1.59,1.36,1.59.85,0,1.25-.63,1.25-1.2Zm-.73-2.82c.53-.41.88-.84.88-1.59,0-.85-.57-1.4-1.23-1.4-.75,0-1.17.61-1.17,1.24,0,.67.47,1.13,1.52,1.75h0Zm26.4,62.34l-37.5-30.57-37.49,30.57c-19.35-22.47-19.21-48.39-19.15-59.09v-17.6h.07l56.58,46.12,56.57-46.12h.08v17.6c.06,10.7.2,36.62-19.15,59.09h0Zm-70.25-16.43c7.98.01,14.47-6.5,14.48-14.54.01-8.04-6.44-14.57-14.42-14.59-7.98,0-14.47,6.5-14.49,14.53-.01,8.04,6.45,14.57,14.43,14.59h0Zm9.37-20.57c.04.44-.19,1.18-.36,1.37-.15.05-.56.09-.87.11-.19,0-.25.03-.36.23-.36.61-.68,1.18-1.06,1.91-.08.85-.08,1.68-.15,2.7-.03.36.02.83-.22,1.24-.32.4-.66.69-.94.89-.06.04-.14.14.1.06.14-.04.81-.38.95-.42.47-.15,1.02-.73,1.77,0,.36.35.91.68,1.57,1.13.25.16.37.13.7.42.26.23.38.74.54,1,.4.69.45,1.11.44,1.27-.26.14-1.2.15-1.58.04-.13-.24-.13-.59-.2-.78-.13-.34-.25-.5-.43-.62-.29-.2-.51-.44-.81-.61-.73-.4-.82-.51-1.35-.24-.49.24-1.26.93-2.06,1.35-.63.31-2.36,0-2.83-.44.16.47,1.13,1,1.86,1.34-.1.25-.36,1.59-.89,2.36-.04-.19-.15-.33-.32-.33-.49,0-.4,1.04-.87,1.58-.03-.17-.14-.34-.34-.34-.46,0-.4.98-.92,1.49-.06-.22-.18-.37-.39-.37s-.4.2-.57.39c-.62.66-.91,1.04-1.5,1.66-1.99-.12-4.91-1.49-5.94-2.74,1.87-2.01,3.56-4.03,4.38-4.6.4-1.19,1.58-3.69,2.01-4.85-.05-.12-.11-.22-.17-.33-.3.17-.64.21-.79.12.12-.32.13-.83,0-1.23-.21.12-.51.19-.72.1.13-.39.16-.84.03-1.21,0,0,0,0,0,0-.27.12-.52.16-.71.09.11-.44.22-.85.08-1.4-.02-.04-.03-.08-.04-.12-.36.18-1.62.41-1.9.3-.18-.14.9-1.24,1.81-2.15-.86.38-1.97.78-3.68,1.12-.97.19-3.01.56-4.46.3-.25-.04-.19-.36.04-.36.76,0,1.79-.04,2.54-.23.2-.05.52-.22-.06-.32-.62-.11-1.75-.29-2.31-.48-.2-.07-.09-.31.08-.29.69.05,1.51.2,2.11.22.34,0,.49-.03.23-.26-.16-.13-.65-.44-1.14-.74-.11-.06-.1-.22.04-.24.39-.07,1.93.9,2.96,1.18.23.06.43.1.62.07.2-.04.24-.16.22-.25-.04-.24-1.06-.73-1.56-1.06-.2-.13.01-.29.22-.22.55.16,1.81.82,2.38.89.46.05.62-.07.6-.2-.05-.31-1.79-1.12-2.21-1.43-.1-.08.04-.22.16-.2.89.11,2.62,1.31,3.39,1.17.08-.01.19-.07.17-.18-.06-.34-1.51-1.1-1.86-1.34-.18-.12.03-.24.28-.18.53.12,1.35.54,1.84.79.23.12.42.16.66.12.32-.06.59-.39.47-1.07-.13-.7-.78-.97-1.23-1.09-.51-.14-.13-.38.3-.29.83.16,1.44.55,1.57,1.29.03.12.03.28.04.44.01.41.3.26.55-.08.46-.64.55-1.28.47-1.72-.13-.75-1.2-1.05-1.2-1.23,0-.06.07-.11.13-.12.41-.07,1.53.41,1.69,1.31.08.48,0,.74-.08,1.2-.02.1.05.18.2.03.53-.54.98-1.5.82-2.38-.17-.93-1.12-1.25-1.15-1.41,0-.04.07-.1.14-.11.39-.07,1.45.56,1.65,1.58.18.91-.25,2.8-3.08,4.31,1.19-.26,1.52-.22,1.64-.08,1.37-.37,2.24-.64,2.6-.57.38.59-.43.82-.44,1.26,0,.42.95-.28.79.38-.29.53-.65.56-1.08.73-.21.14-1.06.75-1.52,1.12,1.37.95,2.77,2.4,2.86,2.47.08.21.41.81.8,1.71.01.02.02.04.03.05.2-.58.51-1.56.65-2.05.12-.43.08-.57.22-.82.11-.21.5-.57.84-1.08.3-.45.8-1.15.97-1.42.29-.44.57-.35,1.1-.49.2-.05.8-.09,1.03-.08h0Zm-10.73.06c.06-.06.17-.16.28-.22.22-.13.53-.19.73-.22.09.15.05.4-.11.59-.18.2-.37.11-.55.03-.13-.06-.23-.06-.28-.06-.07,0-.11-.07-.06-.11h0Zm52.33,5.95c.02-8.04,6.5-14.55,14.48-14.54,7.98.02,14.44,6.54,14.42,14.58,0,8.04-6.5,14.54-14.47,14.53-7.98-.01-14.44-6.71-14.43-14.58Zm21.11-9.92c.08.11.14.24.15.39,0,.36-.28.66-.64.67-.36,0-.65-.27-.67-.63,0-.33.23-.61.55-.66l-.75-1.15-1.27.55c.14.12.22.28.23.47,0,.36-.28.66-.63.67-.36,0-.66-.27-.67-.63,0-.28.16-.51.4-.61-.38-.41-1.2-1.02-1.99-1.28.61,1.1.94,2.46.92,3.59.81-.05,3.05.64,3.9,1.28.69-1.02,1.73-1.99,2.88-2.4-.55-.19-1.63-.36-2.43-.25Zm-4.06,2.9c-.1,0-.19-.02-.29-.04-.09-.02-.13-.06-.15-.09-.03-.03-.11-.13-.33-.15-.38-.02-.57.27-.6.45-.01.13.02.27.1.37.07.09.18.14.29.15.08,0,.16,0,.25-.04h.01c.15-.1.24-.23.29-.37.02-.06.2-.13.41-.14.04,0,.08-.03.08-.06.01-.04,0-.08-.04-.08h0Zm-3.91.21c-.08.14-.07.28-.05.39,0,.01.05.08.06.09-.05.22-.04.5.05.89.05.23.25.31.64.32,0,.09.01.19.03.28,0,.01,0,.02,0,.03-.23.06-.44.1-.64.09-.6-.04-.98-.37-.9-.98.01-.11.04-.2.1-.31.03-.05,0-.09-.05-.11-.21-.08-.83.43-.93,1.14-.08.67.29,1.05.85,1.08.3.02.72-.02,1.16-.2.75-.3,1.59-.4,2.11.13-.39-.07-1.4,0-1.7.06-.44.08-.64.98-.16,1.01.37.02,1.73-.06,1.81-.04-.14.59-1.02,1.34-1.87,1.52-.53-.22-2.04-.17-2.74.04-.87-.99-1.5-2.81-1.58-3.41-.03-.28-.04-.59.1-.85.27-.5.83-.45,1.09-.88.14-.23.08-.51.12-.76.02-.11.24-.49-.04-.62-.12.15-.32.27-.57.19-.16-.06-.34-.11-.52-.04-.31.13-.36.51-.6.75-.13.13-.29.07-.25-.14.07-.35.23-.67.18-1.02-.06-.36-.32-.63-.68-.83-.15-.09-.33-.24-.51-.28-.17-.04-.31.02-.33.1.08.06.15.15.16.3.01.32-.34.49-.34.8-.01.46.32.88.34,1.12.03.18-.13.19-.24.13-.24-.13-.61-.33-.96-.34-.28,0-.47.22-.72.32-.11.04-.56.04-.47.25.25.05.43.21.51.44.07.18.1.32.27.44.27.2.86.15,1.14.19.18.04.39.14.45.52.04.26-.05.55-.18.76-.22.39-.33.79-.23,1.16.1-.14.21-.2.33-.2.25,0,.32.28.14.66-.16.34-.26.74-.11,1.18.08-.15.2-.24.34-.24.22,0,.34.24.18.66-.14.39-.18.77-.03,1.14.06-.16.19-.27.35-.27.23,0,.33.24.41.44.28.67.72,1.01,1.8,1.01-.38.71-3.51.25-4.78.11-.28-.03-.43-.11-.51-.33-.2-.5.27-.91,0-1.44-.13-.26-.34-.32-.57-.47-.1-.07-.39-.43-.58-.27.08.2.06.36-.16.56-.14.13-.29.24-.31.45-.04.35.25.69.34,1,.08.22-.06.32-.25.18-.3-.23-.74-.77-1.21-.77-.32,0-.4.19-.65.3-.11.05-.6.1-.56.34.21.04.4.16.46.45.04.19.08.38.26.51.42.32,1.09.18,1.47.26.15.03.18.17.04.25-.33.2-.8.33-.97.66-.13.27-.05.58-.06.84,0,.12-.16.49.1.56.13-.17.31-.3.61-.26.19.03.36.11.55.02.33-.17.36-.47.53-.75.09-.14.24-.29.47-.29.14,0,.27.03.39.13.25.22.22.76.99.87-.04-.08-.06-.19-.06-.27,0-.15.1-.28.25-.28.18,0,.3.08.46.36.2.35.42.46.77.49-.05-.09-.08-.2-.08-.3,0-.16.1-.27.25-.27.09,0,.25.04.39.27.22.38.39.56.77.6-.11-.22-.02-.52.27-.52s1.04.26,1.58.48c-.02,1.41.89,2.93,2.26,3.85-.05-.27.09-.42.29-.42.55,0,.84,1.3,2.07,1.89-.06-.25.07-.41.25-.41.15,0,.35.09.46.15,1.11.6,2.28,1.36,2.85,1.85,1.15-.35,3.03-1.48,4.26-2.74-.76-.23-2.85-1.8-3.58-2.55-1.31-1.35-1.67-2.76-1.67-3.81,0-.35.06-.68.14-.94.39.23.93.19,1.26-.11-.6-.47-.51-1.39-.31-1.72.33.27.94.19,1.25-.08-.46-.29-.7-1.03-.47-1.66.25.27.85.28,1.21-.02-.48-.4-.73-1.04-.59-1.8.22.3.65.35.95.22-.19-.41-.21-1.08-.26-1.52-.08-.61-.25-1.31-.46-1.68-.66-.57-2.67-1.37-3.92-1.37-.17,0-.33.02-.47.06-.35.08-.6.2-.61.26-.18.29-.65.35-1.06.47-.3.08-1.09.3-1.39.48h0Zm1.92,9.78h-.11c-.08.85-.55,2.15-.85,2.62l.55-.43.35.43.36-.43.51.43c-.28-.5-.73-1.77-.81-2.62h0Zm9.65,4.13c.12-.17.26-.41.26-.41-.54-.82-.94-1.71-.87-2.74.08-1.12.7-1.45,1.19-1.43.44.02.74.36.77.85.38-.32.54-.69.57-1.06.02-.29-.13-.74-.62-.86.88-.82.8-2.47-.11-3.1.13,1.18-.76,2-1.55,2.76-1.06,1.03-1.2,2.2-1.01,3.41-.63-1.22-.93-2.37-.84-3.51.09-1.27.73-2.58,1.66-2.52.3.02.61.17.73.44.44-.74.13-1.57-.58-1.63.73-1.75-.46-3.51-1.43-3.89.25.53.37,1.06.33,1.67-.12,1.69-1.59,3.03-1.74,5.54-.16,2.71,1.35,5.07,2.97,6.87,0,0,.13-.17.27-.38h0Zm-6.37-.41h-.1c-.08.85-.56,2.15-.86,2.62l.55-.43.35.43.36-.43.51.43c-.28-.49-.73-1.77-.82-2.62h0Zm-2.51-10.99c.09-.17.13-.4.13-.53,0-.1-.01-.23-.11-.33-.11-.1-.36-.15-.63-.15s-.55.04-.71.15c-.02.07-.05.17-.09.27.49,0,1.03.13,1.42.6Z"/>
    </g>
  </g>
</svg>