<?xml version="1.0" encoding="UTF-8"?>
<svg id="art" xmlns="http://www.w3.org/2000/svg" viewBox="0 0 1212.89 250">
  <defs>
    <style>
      .cls-1 {
        fill: #fff;
      }

      .cls-1, .cls-2 {
        stroke-width: 0px;
      }

      .cls-2 {
        fill: #4f2683;
      }
      .cls-3 {
        fill: transparent;      }
    </style>
  </defs>
  <rect class="cls-3" width="800" height="150" rx="3" ry="3"/>
  <g>
    <g>
      <path class="cls-1" d="m617.8,152.9s-2.29-1.25-5.52-1.25h-53.03v-2.5h9.69l.1-8.75v-51.05l-.1-8.75h-9.69v-2.5h50.63c3.13,0,5.52-1.25,5.52-1.25l5,24.17h-2.71c-4.58-14.06-9.27-20-24.59-20h-12.61l-.1,8.33v23.13h6.56c7.71,0,11.77-2.19,11.77-12.4v-3.13h2.81v35.01h-2.81v-4.06c0-9.17-1.88-12.5-11.98-12.5h-6.35v25.11l.1,8.44h14.27c14.9,0,22.09-8.75,25.63-22.5h3.02l-5.63,26.46h0Z"/>
      <path class="cls-1" d="m637.12,149.15l.11-8.96.1-28.55-.1-6.77h-8.23v-2.6h10.83c4.58,0,6.46-1.35,7.81-2.4v11.46h.21c3.13-6.88,9.27-10.94,17.61-10.94,10,0,15,4.38,15,14.59v25.21l.1,8.96h8.02v2.4h-26.57v-2.4h7.81l.21-8.96v-24.69c0-5.63-1.04-11.46-8.13-11.46-9.48,0-14.27,9.17-14.27,18.65v17.5l.1,8.96h7.92v2.4h-27.19v-2.4h8.65Z"/>
      <path class="cls-1" d="m739.17,111.12c-2.29,0-4.06-1.88-4.06-4.17,0-1.35.63-2.6,1.77-3.33-.31-.1-.63-.21-1.04-.21-3.44,0-5.21,3.13-5.73,3.96,1.35,2.71,2.4,4.58,2.4,8.54,0,9.59-6.25,16.88-17.71,16.88-6.46,0-9.79-2.19-12.29-3.96-1.67.94-3.85,2.5-3.85,5.42,0,4.58,4.79,4.9,9.27,5.21,2.29.1,10.52.31,13.13.52,10.63.63,18.65,4.17,18.65,16.15,0,14.38-13.65,18.23-24.69,18.23-19.38,0-23.55-8.75-23.55-14.27,0-7.71,8.23-11.46,12.5-12.4-5.42-1.35-9.27-5.42-9.27-11.36,0-4.9,3.23-7.81,5.94-9.38-1.35-1.67-4.06-4.79-4.06-10.31,0-9.27,6.67-16.46,18.33-16.46,7.71,0,10.83,2.6,13.44,4.79,1.35-1.77,3.75-4.17,7.92-4.17,3.54,0,6.98,2.29,6.98,6.04,0,2.29-1.77,4.27-4.06,4.27h0Zm-23.34,38.23c-9.79-.21-18.75,1.25-18.75,10.63,0,8.23,8.75,11.67,18.02,11.67,11.67,0,20.84-4.58,20.84-12.29,0-9.69-11.56-9.9-20.11-10h0Zm-1.15-46.78c-7.71,0-7.92,8.34-7.92,14.9s1.15,12.71,7.92,12.71c7.81,0,7.81-8.33,7.81-15.73,0-3.23,0-11.88-7.81-11.88Z"/>
      <path class="cls-1" d="m766.36,112.48v27.82l.1,8.85h8.33v2.5h-27.71v-2.5h8.96l.1-8.85v-27.82l-.1-7.6h-9.06v-2.6h11.77c4.58,0,6.46-1.35,7.81-2.4l-.21,12.61Zm-5.42-21.57c3.23,0,6.04-2.71,6.04-6.04s-2.81-6.15-6.04-6.15c-3.44,0-6.15,2.81-6.15,6.15s2.81,6.04,6.15,6.04Z"/>
      <path class="cls-1" d="m788.94,149.15l.1-8.96.1-28.55-.1-6.77h-8.23v-2.6h10.83c4.58,0,6.46-1.35,7.81-2.4v11.46h.21c3.13-6.88,9.27-10.94,17.61-10.94,10,0,15,4.38,15,14.59v25.21l.1,8.96h8.02v2.4h-26.57v-2.4h7.81l.21-8.96v-24.69c0-5.63-1.04-11.46-8.13-11.46-9.48,0-14.27,9.17-14.27,18.65v17.5l.1,8.96h7.92v2.4h-27.19v-2.4h8.65Z"/>
      <path class="cls-1" d="m889.59,138.1c-4.17,10.83-12.19,14.59-21.98,14.59-15.94,0-23.75-11.36-23.75-26.25s8.33-26.36,23.86-26.36c14.17,0,21.77,9.38,21.77,23.13h-33.96v.83c0,15.42,1.98,25.52,15.11,25.52,8.86,0,13.65-5.42,16.56-12.29l2.4.83h0Zm-34.07-17.82h22.09v-3.85c-.21-7.08-2.08-13.75-10.63-13.75-8.02,0-10.83,7.4-11.36,15-.11.73-.11,1.88-.11,2.6Z"/>
      <path class="cls-1" d="m941.57,138.1c-4.17,10.83-12.19,14.59-21.98,14.59-15.94,0-23.75-11.36-23.75-26.25s8.33-26.36,23.86-26.36c14.17,0,21.77,9.38,21.77,23.13h-33.96v.83c0,15.42,1.98,25.52,15.11,25.52,8.86,0,13.65-5.42,16.56-12.29l2.4.83h0Zm-34.07-17.82h22.09v-3.85c-.21-7.08-2.08-13.75-10.63-13.75-8.02,0-10.83,7.4-11.36,15-.11.73-.11,1.88-.11,2.6Z"/>
      <path class="cls-1" d="m981,113.31c-3.12,0-5.52-2.5-5.52-5.52,0-1.77.83-3.33,2.08-4.38-.31-.1-.73-.21-1.35-.21-7.29,0-13.02,12.61-13.02,24.38v12.71l.1,8.75h8.44v2.6h-27.92v-2.6h8.75l.1-8.75v-35.42h-8.85v-2.6h11.56c4.48,0,6.15-1.35,7.81-2.81v14.17h.1c2.19-5.94,6.36-13.54,14.79-13.54,5.52,0,8.75,3.13,8.75,7.4,0,3.13-2.61,5.83-5.83,5.83h0Z"/>
      <path class="cls-1" d="m1010.48,112.48v27.82l.1,8.85h8.33v2.5h-27.71v-2.5h8.96l.1-8.85v-27.82l-.1-7.6h-9.06v-2.6h11.77c4.58,0,6.46-1.35,7.81-2.4l-.21,12.61h0Zm-5.42-21.57c3.23,0,6.04-2.71,6.04-6.04s-2.81-6.15-6.04-6.15c-3.44,0-6.15,2.81-6.15,6.15s2.81,6.04,6.15,6.04Z"/>
      <path class="cls-1" d="m1032.36,149.15l.1-8.96.1-28.55-.1-6.77h-8.23v-2.6h10.83c4.58,0,6.46-1.35,7.81-2.4v11.46h.21c3.13-6.88,9.27-10.94,17.61-10.94,10,0,15,4.38,15,14.59v25.21l.1,8.96h8.02v2.4h-26.57v-2.4h7.81l.21-8.96v-24.69c0-5.63-1.04-11.46-8.13-11.46-9.48,0-14.27,9.17-14.27,18.65v17.5l.1,8.96h7.92v2.4h-27.19v-2.4h8.65Z"/>
      <path class="cls-1" d="m1134.41,111.12c-2.29,0-4.06-1.88-4.06-4.17,0-1.35.63-2.6,1.77-3.33-.31-.1-.63-.21-1.04-.21-3.44,0-5.21,3.13-5.73,3.96,1.35,2.71,2.4,4.58,2.4,8.54,0,9.59-6.25,16.88-17.71,16.88-6.46,0-9.79-2.19-12.29-3.96-1.67.94-3.85,2.5-3.85,5.42,0,4.58,4.79,4.9,9.27,5.21,2.29.1,10.52.31,13.13.52,10.63.63,18.65,4.17,18.65,16.15,0,14.38-13.65,18.23-24.69,18.23-19.38,0-23.55-8.75-23.55-14.27,0-7.71,8.23-11.46,12.5-12.4-5.42-1.35-9.27-5.42-9.27-11.36,0-4.9,3.23-7.81,5.94-9.38-1.35-1.67-4.06-4.79-4.06-10.31,0-9.27,6.67-16.46,18.33-16.46,7.71,0,10.83,2.6,13.44,4.79,1.35-1.77,3.75-4.17,7.92-4.17,3.54,0,6.98,2.29,6.98,6.04,0,2.29-1.77,4.27-4.06,4.27h0Zm-23.34,38.23c-9.79-.21-18.75,1.25-18.75,10.63,0,8.23,8.75,11.67,18.02,11.67,11.67,0,20.84-4.58,20.84-12.29,0-9.69-11.56-9.9-20.11-10h0Zm-1.15-46.78c-7.71,0-7.92,8.34-7.92,14.9s1.15,12.71,7.92,12.71c7.81,0,7.81-8.33,7.81-15.73,0-3.23,0-11.88-7.81-11.88Z"/>
    </g>
    <g>
      <path class="cls-1" d="m258.95,99.91c-.95,1.06-2.21,1.65-3.76,1.65-3.45,0-5.57-1.43-10.84-1.43-9.02,0-16,4.9-16,13.8,0,18.21,27.91,14.32,27.91,27.41,0,5.93-4.32,8.74-9.67,8.74-10,0-15.88-6.5-18.06-16.05h-2.49l3.35,18.32c1.08-1.27,2.51-1.73,3.93-1.73,2.88,0,6.54,2.21,13.03,2.21,10.42,0,18.3-5.8,18.3-15.68,0-19.75-28.35-14.54-28.35-27.31,0-4.06,2.89-7.07,8.12-7.07,8.28,0,12.92,5.85,14.91,12.8h2.45l-2.83-15.66h0Zm141.48,49.2v2.56h27.3v-2.56h-8.08v-26.58c0-9.51,4.9-18.71,14.15-18.71,5.2,0,8.35,2.94,8.35,10.63v34.66h-8.08v2.56h26.58v-2.56h-8.07v-34.35c0-10.22-5.01-14.62-15.03-14.62-8.38,0-14.52,4.09-17.69,11.04h-.21v-11.26c-1.38,1.13-3.24,2.47-7.78,2.47h-10.82v2.55h8.18v44.16h-8.79Zm-99.63-6.21c-1.33,2.97-3.45,5.9-7.24,5.9s-5.51-2.44-5.51-8.47v-35.37h12.58v-2.55h-12.58v-16.89h-2.16c-1.4,10.9-6.87,16.48-16.77,17.43v2.01h0s8.29,0,8.29,0v34.97c0,6.54,1.27,12.78,11.91,12.78,6.7,0,10.77-3.09,12.89-7.11l.82-1.63-2.22-1.06h0Zm96.95-35.64c0-4.05-3-7.12-8.56-7.12-8.32,0-12.44,7.46-14.59,13.39h-.13v-13.8c-1.65,1.36-3.33,2.67-7.74,2.67h-11.48v2.55h8.79v44.16h-8.79v2.56h27.71v-2.56h-8.49v-21.78c0-11.58,5.69-24.17,13-24.17.55,0,.91.06,1.21.2-1.25,1.01-2.06,2.55-2.06,4.29,0,3.22,2.46,5.51,5.51,5.51,3.31,0,5.62-2.76,5.62-5.91h0Zm-181,30.28c-2.88,6.78-7.7,12.19-16.52,12.19-13.19,0-15.13-10.05-15.13-25.46v-.82h33.94c0-13.7-7.59-23.11-21.78-23.11-15.47,0-23.82,11.92-23.82,26.27s7.84,26.28,23.72,26.28c9.83,0,17.81-3.71,21.98-14.58l-2.4-.78h0Zm-31.56-19.57c.56-7.62,3.34-15,11.36-15,8.54,0,10.42,6.67,10.61,13.74.02.66.02,2.94.02,3.57h-22.08c0-.68.04-1.59.09-2.31h0Zm163.73,19.57c-2.88,6.78-7.7,12.19-16.52,12.19-13.19,0-15.13-10.05-15.13-25.46v-.82h33.94c0-13.7-7.59-23.11-21.77-23.11-15.47,0-23.82,11.92-23.82,26.27s7.84,26.28,23.72,26.28c9.83,0,17.81-3.71,21.98-14.58l-2.4-.78h0Zm-31.56-19.57c.56-7.62,3.34-15,11.36-15,8.54,0,10.42,6.67,10.61,13.74.02.66.02,2.94.02,3.57h-22.08c0-.68.04-1.59.09-2.31h0Zm-188.24-18.28c-4.48,12.95-18.48,53.07-18.48,53.07h-2.09l-22.87-62.26-3.76-9.92h-7.1v-2.51h29.35v2.51h-9.19l2.82,8.35,15.98,44.08h.21l13.27-38.33-5.22-14.1h-8.88v-2.51h31.96v2.51h-10.34l2.82,8.15,16.19,44.28h.21l14.41-44.08,2.4-8.35h-9.19v-2.51h20.78v2.51h-7.41l-3.24,9.19-20.68,62.99h-2.2l-19.75-53.07Z"/>
      <g>
        <path class="cls-1" d="m541.34,109.21v-29.88c-7.73-2.74-19.92-4.51-33.64-4.51s-25.43,1.77-33.18,4.51v29.88c0,4.54-.07,12.98,4,22.47,5.06,11.79,14.71,20.58,28.68,26.14l.72.3.72-.29c13.98-5.56,23.63-14.35,28.69-26.14,4.07-9.49,4-18.16,4-22.47h0Z"/>
        <path class="cls-2" d="m507.93,124.72l20.31,16.56c-5.02,5.85-11.81,10.52-20.31,13.94-8.5-3.42-15.29-8.09-20.31-13.94l20.31-16.56Zm30.73-25.06v-18.41c-7.72-2.39-19.09-3.75-30.95-3.75s-22.74,1.36-30.5,3.77v18.4l30.72,25.05,30.73-25.06h0,0Zm-29.85,15.39h-1.86s-.06-.13-.06-.13c0,0-.47-.88-2.49-.88h-6.08v-9.82h.45v9.37h5.63c1.88,0,2.59.71,2.81,1.01h1.47c.21-.31.9-1.01,2.77-1.01h5.64v-9.34h.45v9.79h-6.09c-2.02,0-2.43.87-2.44.88l-.06.13h-.15s0,0,0,0Zm-1.12-1.67v.48c-.85-1.59-4.71-1.34-7.99-1.01v-9.1c4.12-.21,7.63-.79,7.99,1v8.17c-1.05-1.25-4.19-1.12-7.48-.8v.26c3.25-.31,6.69-.42,7.48,1Zm8.49-9.63v9.1c-3.28-.33-7.15-.59-7.99,1.01v-.48c.77-1.44,4.22-1.31,7.49-1v-.26c-3.3-.32-6.46-.47-7.49.8v-8.17c.37-1.79,3.88-1.22,7.99-1Zm18.21-4.1h-52.86l-3.38-3.55,6.74,2.24c-.55-1.68-2.09-2.26-3.09-3.7-.59-.85-.79-1.69-.73-2.57.18.31.51.74,1.02,1.09.49.34,1.14.6,2.03.79,1.59.34,2.41.85,3.11,1.49l-3.45-6.17,5.94,3.83c-.24-1.77-1.46-2.69-2.07-4.32-.36-.97-.35-1.84-.07-2.67.1.35.31.84.71,1.31.39.45.96.86,1.77,1.27,1.51.75,2.18,1.47,2.7,2.3l-1.83-6.92,4.78,5.16c.19-1.74-.75-2.93-.93-4.66-.11-1.03.11-1.88.59-2.62,0,.36.09.89.36,1.45.27.53.71,1.07,1.4,1.67,1.32,1.15,1.78,2.02,2.07,3l-.05-7.27,3.33,6.16c.65-1.56-.04-3,.22-4.7.15-1.03.6-1.81,1.25-2.4-.08.35-.14.88,0,1.49.13.58.42,1.22.94,1.97,1.02,1.47,1.23,2.44,1.26,3.49h.01l1.77-7.12,1.7,6.83c1.03-1.41.76-3,1.44-4.6.4-.96,1.03-1.52,1.8-1.94-.17.32-.36.82-.38,1.44-.02.59.1,1.28.42,2.14.6,1.63.56,2.62.35,3.61l3.45-6.38-.05,7.01c1.34-1.05,1.43-2.72,2.48-4.09.63-.83,1.39-1.22,2.24-1.42-.24.27-.55.71-.73,1.3-.17.57-.22,1.27-.13,2.18.18,1.77-.11,2.73-.58,3.66h0s4.98-5.38,4.98-5.38l-1.79,6.76c1.5-.71,2.04-2.15,3.38-3.21.81-.64,1.64-.96,2.51-.94-.3.2-.71.55-1.02,1.08-.31.51-.53,1.18-.66,2.08-.27,1.75-.77,2.61-1.46,3.39l.03.02,6.16-3.97-3.4,6.09c1.66-.24,2.46-1.56,4.02-2.25.95-.42,1.85-.53,2.7-.3-.34.12-.82.36-1.26.79-.42.42-.8,1.01-1.16,1.85-.69,1.62-1.39,2.32-2.24,2.91l.04.04,6.96-2.31-3.38,3.55h0Zm-33.57,9.95h.18c.55,0,.6-.06.6-.42v-1.58c0-.43-.07-.46-.43-.46h-.34v-.19c.38,0,.77.02,1.12.02.38,0,.76-.01,1.12-.02v.19h-.34c-.37,0-.43.03-.43.46v1.58c0,.37.04.42.59.42h.18v.19c-.34,0-.7-.02-1.12-.02-.32,0-.73.01-1.12.02v-.19h0Zm3.91-1.74c-.42-.26-.72-.63-.72-1.1,0-.41.3-1.14,1.26-1.14.77,0,1.1.48,1.1.92s-.16.72-.8,1.02c.62.32.9.66.9,1.14,0,.68-.53,1.17-1.34,1.17-.73,0-1.19-.5-1.19-1.03,0-.58.45-.86.8-.98h0Zm1.08,1.13c0-.36-.17-.59-.91-1.04-.33.17-.5.51-.5.83,0,.58.41.86.74.86.46,0,.67-.34.67-.65Zm-.39-1.53c.28-.23.48-.46.48-.86,0-.46-.31-.76-.67-.76-.41,0-.63.33-.63.68,0,.36.25.61.82.95h0Zm3.87-.51h2.55l.05.05-2.08,4.09-.31-.09,1.67-3.41h-1.71l-.15.38h-.18l.16-1.03h0Zm3.96.9c-.43-.26-.72-.63-.72-1.1,0-.41.3-1.14,1.26-1.14.77,0,1.1.48,1.1.92s-.16.72-.8,1.02c.63.32.9.66.9,1.14,0,.68-.53,1.17-1.34,1.17-.73,0-1.19-.5-1.19-1.03,0-.58.45-.86.8-.98h0Zm1.08,1.13c0-.36-.17-.59-.91-1.04-.33.17-.5.51-.5.83,0,.58.41.86.74.86.46,0,.67-.34.67-.65Zm-.39-1.53c.28-.23.48-.46.48-.86,0-.46-.31-.76-.67-.76-.41,0-.63.33-.63.68,0,.36.25.61.82.95h0Zm3.93,17.03c0-4.37,3.53-7.9,7.87-7.9,4.34,0,7.85,3.56,7.84,7.93,0,4.37-3.53,7.91-7.87,7.9-4.34,0-7.85-3.64-7.84-7.93h0Zm11.47-5.39c.05.06.08.13.08.21,0,.2-.15.36-.35.36-.19,0-.36-.15-.36-.34,0-.18.13-.33.3-.36l-.4-.63-.69.3c.07.06.12.15.12.25,0,.2-.15.36-.34.36-.19,0-.36-.15-.36-.34,0-.15.09-.28.22-.33-.21-.22-.65-.55-1.08-.69.33.6.51,1.34.5,1.95.44-.03,1.66.35,2.12.69.38-.56.94-1.08,1.57-1.3-.3-.1-.89-.2-1.32-.14h0Zm-2.21,1.58c-.05,0-.1,0-.16-.02-.05-.01-.07-.04-.08-.05-.01-.02-.06-.07-.18-.08-.21-.01-.31.15-.33.24-.01.07,0,.15.05.2.04.05.09.07.15.08.04,0,.09,0,.13-.02h0c.08-.05.13-.13.16-.2.01-.03.11-.07.22-.07.02,0,.04-.01.04-.04,0-.02,0-.04-.03-.04h0Zm-2.13.11c-.04.07-.04.15-.02.21,0,0,.03.04.03.05-.03.12-.02.27.02.48.03.12.14.17.35.17,0,.05,0,.1.02.15,0,0,0,.01,0,.02-.12.03-.24.05-.35.05-.33-.02-.53-.2-.49-.53,0-.06.02-.11.05-.17.02-.03,0-.05-.03-.06-.12-.04-.45.23-.5.62-.05.37.16.57.46.59.17.01.39-.01.63-.11.4-.16.87-.22,1.15.07-.21-.04-.76,0-.92.03-.24.04-.35.53-.09.55.2.01.94-.03.98-.02-.07.32-.55.73-1.02.83-.28-.12-1.11-.09-1.49.02-.47-.53-.82-1.52-.86-1.85-.02-.15-.02-.32.05-.46.15-.27.45-.25.59-.48.08-.13.04-.27.07-.41,0-.06.13-.27-.02-.33-.06.08-.17.14-.31.1-.09-.03-.19-.06-.29-.02-.16.07-.2.27-.32.41-.07.07-.16.04-.14-.08.03-.19.12-.36.1-.56-.03-.19-.17-.34-.37-.45-.08-.05-.18-.13-.28-.15-.09-.02-.17.01-.18.05.05.03.08.08.09.16,0,.18-.18.27-.19.43,0,.25.17.48.19.61.01.1-.07.1-.13.07-.13-.07-.33-.18-.52-.18-.16,0-.26.12-.39.18-.06.02-.3.02-.26.14.14.03.24.11.28.24.03.1.06.17.14.24.15.11.47.08.62.11.1.02.21.08.24.28.02.14-.03.3-.1.42-.12.21-.18.43-.12.63.05-.08.11-.11.18-.11.13,0,.17.15.08.36-.09.19-.14.4-.06.64.04-.08.11-.13.18-.13.12,0,.18.13.1.36-.08.21-.1.42-.02.62.03-.09.1-.15.19-.15.13,0,.18.13.23.24.15.36.38.55.97.55-.21.39-1.91.14-2.6.06-.15-.02-.24-.06-.28-.18-.11-.27.15-.5,0-.78-.07-.14-.19-.18-.31-.26-.06-.03-.21-.23-.31-.15.04.11.03.2-.09.31-.08.07-.16.13-.17.24-.02.19.14.38.19.54.04.12-.03.17-.14.09-.16-.12-.4-.42-.66-.42-.17,0-.22.1-.35.17-.06.03-.33.05-.3.18.12.02.22.09.25.24.02.11.05.21.14.28.23.18.59.1.8.14.09.02.1.09.02.14-.18.11-.43.18-.52.36-.07.15-.03.31-.03.46,0,.06-.09.26.05.3.07-.09.17-.16.33-.14.11.01.2.06.3.01.18-.09.19-.25.29-.41.05-.08.13-.15.25-.15.08,0,.15.02.21.07.14.12.12.41.54.47-.02-.04-.03-.1-.03-.15,0-.08.05-.15.14-.15.1,0,.16.05.25.2.11.19.23.24.42.27-.02-.05-.04-.11-.04-.16,0-.09.05-.14.13-.14.05,0,.14.02.21.15.12.21.21.3.42.33-.06-.12-.01-.28.15-.28s.56.14.86.26c-.01.77.49,1.59,1.23,2.09-.03-.14.05-.23.16-.23.3,0,.45.71,1.13,1.03-.04-.14.04-.22.13-.22.08,0,.19.05.25.08.6.32,1.24.74,1.55,1.01.62-.19,1.65-.81,2.32-1.49-.41-.13-1.55-.98-1.94-1.39-.71-.73-.9-1.5-.9-2.07,0-.19.03-.37.07-.51.21.12.5.11.68-.06-.33-.25-.28-.76-.17-.94.18.15.51.1.68-.05-.25-.15-.38-.56-.25-.9.14.14.46.15.66,0-.26-.22-.39-.57-.32-.98.12.17.35.19.52.12-.1-.22-.11-.59-.15-.83-.04-.33-.14-.71-.25-.91-.36-.31-1.45-.75-2.13-.75-.09,0-.18.01-.26.03-.19.04-.32.11-.33.14-.1.16-.35.19-.58.25-.16.05-.59.17-.76.26h0Zm1.04,5.31h-.06c-.04.46-.3,1.17-.46,1.43l.3-.23.19.23.2-.23.28.23c-.15-.27-.4-.97-.44-1.43h0Zm5.25,2.25c.06-.09.14-.23.14-.23-.29-.44-.51-.93-.47-1.49.04-.61.38-.79.65-.78.24,0,.4.19.42.46.2-.17.29-.37.31-.57.01-.16-.07-.4-.34-.47.48-.45.43-1.34-.06-1.69.07.65-.41,1.08-.84,1.5-.58.56-.65,1.19-.55,1.85-.34-.66-.5-1.29-.46-1.9.05-.69.4-1.41.9-1.37.16.01.33.09.4.24.25-.41.07-.85-.31-.89.4-.95-.25-1.91-.78-2.12.14.29.21.58.18.91-.07.92-.87,1.65-.95,3.01-.09,1.48.73,2.76,1.61,3.74,0,0,.07-.09.15-.21h0Zm-3.47-.22h-.06c-.05.46-.3,1.17-.47,1.42l.3-.24.19.24.19-.23.28.23c-.15-.27-.4-.96-.44-1.42h0Zm-1.37-5.97c.05-.09.07-.22.07-.29,0-.05,0-.12-.06-.18-.06-.05-.2-.08-.34-.08s-.3.02-.39.08c-.01.04-.03.09-.05.15.27,0,.56.07.77.32h0Zm-36.35,10.26c4.34,0,7.86-3.53,7.87-7.9.01-4.37-3.5-7.92-7.84-7.93-4.34,0-7.86,3.53-7.87,7.9,0,4.37,3.51,7.92,7.84,7.93h0Zm5.09-11.18c.02.24-.11.64-.2.74-.08.02-.31.05-.47.06-.11,0-.13.02-.2.13-.19.33-.37.64-.57,1.04-.04.46-.04.91-.08,1.46-.01.19.01.45-.12.67-.17.22-.36.38-.51.48-.03.02-.07.08.06.04.08-.02.44-.21.52-.23.26-.08.55-.4.96,0,.2.19.5.37.85.61.13.09.2.07.38.23.15.13.21.41.29.55.22.37.24.6.24.69-.14.08-.65.08-.86.02-.07-.13-.06-.32-.11-.42-.07-.18-.14-.27-.23-.34-.16-.11-.27-.24-.44-.33-.39-.22-.44-.28-.74-.13-.26.13-.68.5-1.12.73-.34.17-1.28,0-1.54-.24.09.26.61.55,1.01.73-.06.14-.2.86-.49,1.28-.02-.1-.08-.18-.17-.18-.26,0-.22.57-.47.86-.02-.09-.08-.18-.18-.18-.25,0-.22.53-.5.81-.03-.12-.1-.2-.21-.2-.11,0-.21.11-.31.21-.34.36-.49.57-.82.9-1.07-.06-2.67-.81-3.23-1.49,1.02-1.09,1.94-2.19,2.38-2.5.22-.64.86-2.01,1.09-2.63-.03-.06-.06-.12-.09-.18-.16.09-.35.11-.43.07.07-.18.07-.45,0-.67-.11.07-.28.1-.39.06.07-.21.09-.46.02-.66,0,0,0,0,0,0-.15.07-.28.09-.39.05.06-.24.12-.46.05-.76,0-.02-.02-.04-.02-.06-.19.1-.88.22-1.04.16-.1-.08.49-.68.98-1.17-.46.21-1.07.42-2,.61-.53.11-1.64.3-2.42.16-.13-.02-.1-.2.02-.2.41,0,.97-.02,1.38-.12.11-.03.28-.12-.03-.18-.34-.06-.95-.16-1.26-.26-.11-.04-.05-.17.04-.16.38.03.82.11,1.14.12.19,0,.27-.02.13-.14-.09-.07-.35-.24-.62-.4-.06-.04-.05-.12.02-.13.21-.03,1.05.49,1.61.64.13.04.23.06.34.04.11-.02.13-.09.12-.14-.02-.13-.58-.39-.84-.57-.11-.07,0-.16.12-.12.3.08.98.45,1.29.48.25.03.33-.04.32-.11-.03-.17-.98-.61-1.2-.78-.06-.04.02-.12.09-.11.48.06,1.42.71,1.84.64.05,0,.1-.04.09-.1-.03-.19-.82-.6-1.01-.73-.1-.06.02-.13.15-.1.29.07.73.29,1,.43.12.06.23.09.36.07.17-.03.32-.21.25-.58-.07-.38-.43-.53-.67-.6-.27-.07-.07-.2.16-.16.45.09.78.3.86.7.01.06.01.16.02.24,0,.22.16.14.29-.04.25-.35.3-.7.26-.93-.07-.41-.65-.57-.65-.67,0-.03.03-.06.06-.06.22-.04.83.22.92.71.05.26,0,.4-.05.65-.01.05.03.1.11.01.29-.29.53-.82.45-1.29-.09-.51-.61-.68-.63-.77,0-.02.04-.05.08-.06.21-.04.79.3.9.86.1.5-.14,1.52-1.67,2.34.65-.15.82-.12.89-.04.74-.2,1.21-.35,1.41-.31.21.32-.23.45-.24.68,0,.23.52-.15.43.21-.16.28-.36.31-.59.4-.12.08-.57.4-.82.61.74.52,1.5,1.3,1.55,1.34.04.11.23.44.43.93,0,0,.01.02.02.03.1-.31.27-.85.35-1.11.07-.23.04-.31.12-.45.06-.12.27-.31.46-.58.17-.25.43-.63.53-.77.16-.24.31-.19.6-.27.11-.03.43-.05.56-.04h0Zm-5.84.04s.09-.09.15-.12c.12-.07.29-.1.4-.12.05.08.03.22-.06.32-.1.11-.2.06-.3.01-.07-.03-.12-.03-.15-.03-.04,0-.06-.04-.03-.06h0Zm26.57,20.38c.07-.06.24-.27.17-.32-.12-.06-.34.18-.7.18s-.72-.22-.84-.67c-.14-.52.1-.9.49-1.24.13-.11.43-.29.52-.45-.02-.28.28-.75.29-1,0-.29.29-.41.55-.79.14-.21.24-.42.13-.53-.32.25-1.2.95-1.74.75-.25-.09-.26-.1-.48.06-.17.13-.4.18-.69.14-.47-.07-.79-.39-.78-.61-.3-.03-.6.53-.76.74-.21.28-.45.5-.73.71-.23.18-.59.56-.88.37-.2-.14-.22-.61-.2-.87.02-.44.07-.76.12-1.04.05-.25.12-.55.19-.79.09-.29.25-.6.35-.89.05-.13.38-.71.38-.93,0-.06-.04-.09-.1-.09-.14,0-.35.15-.54.26-.16.09-.31.16-.53.16-.24,0-.44-.1-.6-.39-.27-.48-.27-1.52-.4-1.83-.27.14-.48.07-.65-.17-.2-.28-.31-.61-.44-.95-.05-.13-.15-.5-.2-.71-.15.32-.17.65-.27.93-.05.17-.09.39-.14.57-.05.22-.23.59-.45.59-.12,0-.2-.13-.22-.2-.07,0-.13.08-.18.22-.09.23-.09.43-.15.66-.11.45-.18,1.06-.73,1.14-.24.03-.53-.15-.73-.24-.47-.23-.29.42-.15.68.13.25.33.56.38.91.08.59.19.87.32,1.44.08.35.21.83.22,1.19,0,.44-.32.7-.84.24-.15-.13-.48-.55-.78-.63-.39-.11-.79-.53-.94-.74-.09,0-.28.14-.35.21-.44.4-.92.51-1.68.38-.39-.07-.52-.16-.87-.33-.28-.14-.55-.27-.74-.55-.05-.07-.08-.22-.2-.2-.12.02-.13.26-.13.35,0,.28.1.58.23.82.15.28.41.38.61.6.18.2.09.46-.21.35,0,.22.25.26.4.37.16.13.24.29.33.47.11.22.43.41.44.7,0,.21-.07.36-.25.45-.23.12-.47.09-.72-.04-.13.41.34.7.65.86.17.09.36.14.52.26.16.12.38.29.34.42.24.1.51,0,.9.05.24.03.58.21.77.36.2.16.31.37.31.62,0,.92-1.57,1.18-1.57,1.18.65.24,1.49.68,2.2.5.14-.03.36-.16.52-.08.14.07.25.28.14.47.12.13.36.17.58.17.17,0,.37-.02.53-.09.19-.09.25-.23.42-.33.16-.1.33-.06.49-.13.27-.11.39-.42.72-.44l-.12,5.38h1.02c-.02-.54-.03-1.09-.05-1.64-.03-.93-.05-1.86-.09-2.79-.01-.3-.03-.61,0-.91.29.09.42.45.67.6.29.18,1.01.6,1.33.29-.05-.12-.24-.46,0-.43.07.01.22.12.3.16.17.09.33.12.52.1.26-.03.5-.04.8.02.2.03.32.05.55,0,.18-.04.32-.13.48-.19.28-.12.6-.06.82-.3-.23,0-.67-.17-.76-.23-.27-.18-.48-.42-.61-.71-.12-.3-.22-.67.19-.75.23-.05.18,0,.32-.16.14-.15.39-.39.6-.46.25-.09,1.01-.05,1.1-.37-.03-.04-.09-.11-.08-.17.01-.08.07-.11.16-.15.14-.07.32-.14.47-.18.21-.07.52-.19.72-.35h0Z"/>
      </g>
    </g>
  </g>
</svg>