<?xml version="1.0" encoding="UTF-8"?>
<svg id="art" xmlns="http://www.w3.org/2000/svg" viewBox="0 0 780.18 300">
  <defs>
    <style>
      .cls-1 {
        fill: #fff;
      }

      .cls-1, .cls-2 {
        stroke-width: 0px;
      }

      .cls-2 {
        fill: #4f2683;
      }
      .cls-3 {
        fill: transparent;
      }
    </style>
  </defs>
  <rect class="cls-3" x="0" width="780.18" height="300" rx="3" ry="3"/>
  <g>
    <g>
      <path class="cls-1" d="m333.75,123.53c-2.47,5.81-6.6,10.44-14.15,10.44-11.3,0-12.96-8.61-12.96-21.81v-.7h29.08c0-11.74-6.5-19.8-18.66-19.8-13.25,0-20.41,10.22-20.41,22.51s6.72,22.51,20.32,22.51c8.42,0,15.26-3.18,18.83-12.49l-2.05-.67h0Zm-27.04-16.76c.48-6.53,2.86-12.85,9.73-12.85,7.32,0,8.93,5.72,9.09,11.77.01.56.02,2.52.02,3.06h-18.92c0-.59.04-1.37.08-1.98Z"/>
      <path class="cls-1" d="m514.5,133.44h-6.92v-22.77c0-8.15,4.2-16.03,12.12-16.03,4.45,0,7.15,2.52,7.15,9.11v29.7h-6.92v2.19h22.77v-2.19h-6.92v-29.43c0-8.76-4.29-12.53-12.88-12.53-7.18,0-12.44,3.51-15.15,9.46h-.18v-9.64c-1.18.97-2.78,2.11-6.67,2.11h-9.27v2.19h7.01v37.84h-7.53v2.19h23.39v-2.19h0Z"/>
      <path class="cls-1" d="m399.55,133.17c-3.34,0-4.72-2.09-4.72-7.26v-30.31h10.78v-2.19h-10.78v-14.47h-1.85c-1.2,9.34-5.88,14.12-14.37,14.93v1.72h0s7.1,0,7.1,0v29.96c0,5.6,1.09,10.95,10.2,10.95,5.74,0,9.23-2.65,11.05-6.09l.7-1.4-1.9-.9c-1.14,2.55-2.96,5.05-6.21,5.05h0Z"/>
      <path class="cls-1" d="m476.14,133.44h-7.27v-18.66c0-9.93,4.87-20.71,11.14-20.71.47,0,.78.06,1.04.18-1.07.87-1.76,2.19-1.76,3.67,0,2.75,2.11,4.72,4.72,4.72,2.84,0,4.81-2.36,4.81-5.07,0-3.47-2.57-6.1-7.33-6.1-7.13,0-10.66,6.39-12.5,11.47h-.11v-11.83c-1.42,1.16-2.85,2.28-6.63,2.28h-9.84v2.19h7.53v37.84h-7.53v2.19h23.74v-2.19h0Z"/>
      <path class="cls-1" d="m297.96,74.72h6.35v-2.15h-17.81v2.15h7.87l-2.06,7.16-12.35,37.76h-.18l-13.87-37.94-2.42-6.98h8.86v-2.15h-27.39v2.15h7.61l4.48,12.08-11.37,32.84h-.18l-13.69-37.76-2.42-7.16h7.87v-2.15h-25.15v2.15h6.09l3.22,8.5,19.6,53.34h1.79s11.99-34.37,15.84-45.47l16.92,45.47h1.88l17.72-53.97,2.77-7.87Z"/>
      <path class="cls-1" d="m359.31,134.27c-8.57,0-13.6-5.57-15.48-13.75h-2.13l2.87,15.7c.93-1.09,2.15-1.48,3.37-1.48,2.47,0,5.6,1.89,11.16,1.89,8.93,0,15.68-4.97,15.68-13.43,0-16.92-24.29-12.46-24.29-23.4,0-3.48,2.48-6.06,6.96-6.06,7.1,0,11.07,5.01,12.77,10.97h2.1l-2.42-13.41c-.81.91-1.89,1.41-3.22,1.41-2.95,0-4.77-1.22-9.28-1.22-7.72,0-13.71,4.2-13.71,11.82,0,15.6,23.91,12.27,23.91,23.48,0,5.08-3.7,7.49-8.28,7.49h0Z"/>
      <path class="cls-1" d="m430.21,136.68c8.42,0,15.26-3.18,18.83-12.49l-2.05-.67c-2.47,5.81-6.6,10.44-14.15,10.44-11.3,0-12.96-8.61-12.96-21.81v-.7h29.08c0-11.74-6.5-19.8-18.65-19.8-13.26,0-20.41,10.22-20.41,22.51s6.72,22.51,20.33,22.51Zm-10.26-29.92c.48-6.53,2.86-12.85,9.73-12.85,7.32,0,8.93,5.72,9.09,11.77.01.56.02,2.52.02,3.06h-18.92c0-.59.04-1.37.08-1.98Z"/>
      <path class="cls-1" d="m250.41,214.23h-12.23l-.09-7.23v-21.51h5.44c8.66,0,10.26,2.86,10.26,10.71v3.48h2.41v-29.99h-2.41v2.68c0,8.75-3.48,10.62-10.09,10.62h-5.62v-19.82l.09-7.14h10.8c13.12,0,17.14,5.09,21.07,17.14h2.32l-4.28-20.71s-2.05,1.07-4.73,1.07h-43.38v2.14h8.3l.09,7.5v43.74l-.09,7.5h-8.3v2.14h45.43c2.77,0,4.73,1.07,4.73,1.07l4.82-22.67h-2.59c-3.04,11.78-9.19,19.28-21.96,19.28h0Z"/>
      <path class="cls-1" d="m323.82,206.73v-21.6c0-8.75-4.28-12.5-12.85-12.5-7.14,0-12.41,3.48-15.08,9.37h-.18v-9.82c-1.16.89-2.77,2.05-6.69,2.05h-9.28v2.23h7.05l.09,5.8-.09,24.46-.09,7.68h-7.41v2.05h23.3v-2.05h-6.78l-.09-7.68v-15c0-8.12,4.11-15.98,12.23-15.98,6.07,0,6.96,5,6.96,9.82v21.15l-.18,7.68h-6.69v2.05h22.76v-2.05h-6.87l-.09-7.68h0Z"/>
      <path class="cls-1" d="m371.62,173c-3.57,0-5.62,2.05-6.78,3.57-2.23-1.88-4.91-4.11-11.51-4.11-10,0-15.71,6.16-15.71,14.1,0,4.73,2.32,7.41,3.48,8.84-2.32,1.34-5.09,3.84-5.09,8.03,0,5.09,3.3,8.57,7.94,9.73-3.66.8-10.71,4.02-10.71,10.62,0,4.73,3.57,12.23,20.17,12.23,9.46,0,21.15-3.3,21.15-15.62,0-10.26-6.87-13.3-15.98-13.83-2.23-.18-9.28-.36-11.25-.45-3.84-.27-7.94-.54-7.94-4.46,0-2.5,1.87-3.84,3.3-4.64,2.14,1.52,5,3.39,10.53,3.39,9.82,0,15.17-6.25,15.17-14.46,0-3.39-.89-5-2.05-7.32.45-.71,1.96-3.39,4.91-3.39.36,0,.63.09.89.18-.98.62-1.52,1.7-1.52,2.86,0,1.96,1.52,3.57,3.48,3.57s3.48-1.7,3.48-3.66c0-3.21-2.95-5.18-5.98-5.18h0Zm-17.49,41.59c7.32.09,17.23.27,17.23,8.57,0,6.61-7.85,10.53-17.85,10.53-7.94,0-15.44-2.95-15.44-10,0-8.03,7.68-9.28,16.07-9.1Zm-.98-16.42c-5.8,0-6.78-5.27-6.78-10.89s.18-12.76,6.78-12.76,6.69,7.41,6.69,10.17c0,6.34,0,13.48-6.69,13.48Z"/>
      <path class="cls-1" d="m397.95,159.34c0-2.86-2.41-5.27-5.18-5.27-2.95,0-5.27,2.41-5.27,5.27s2.41,5.18,5.27,5.18,5.18-2.32,5.18-5.18Z"/>
      <path class="cls-1" d="m397.41,206.82v-23.83l.18-10.8c-1.16.89-2.77,2.05-6.69,2.05h-10.09v2.23h7.77l.09,6.52v23.83l-.09,7.59h-7.67v2.14h23.74v-2.14h-7.14l-.09-7.59h0Z"/>
      <path class="cls-1" d="m453.89,206.73v-21.6c0-8.75-4.29-12.5-12.85-12.5-7.14,0-12.41,3.48-15.09,9.37h-.18v-9.82c-1.16.89-2.77,2.05-6.69,2.05h-9.28v2.23h7.05l.09,5.8-.09,24.46-.09,7.68h-7.41v2.05h23.3v-2.05h-6.78l-.09-7.68v-15c0-8.12,4.1-15.98,12.23-15.98,6.07,0,6.96,5,6.96,9.82v21.15l-.18,7.68h-6.69v2.05h22.76v-2.05h-6.87l-.09-7.68h0Z"/>
      <path class="cls-1" d="m486.75,214.77c-11.25,0-12.94-8.66-12.94-21.87v-.71h29.1c0-11.78-6.52-19.82-18.66-19.82-13.3,0-20.44,10.26-20.44,22.58s6.69,22.49,20.35,22.49c8.39,0,15.26-3.21,18.83-12.5l-2.05-.71c-2.5,5.89-6.61,10.53-14.19,10.53h0Zm-12.85-27.31c.45-6.52,2.86-12.85,9.73-12.85,7.32,0,8.93,5.71,9.1,11.78v3.3h-18.92c0-.62,0-1.61.09-2.23h0Z"/>
      <path class="cls-1" d="m531.28,214.77c-11.25,0-12.94-8.66-12.94-21.87v-.71h29.1c0-11.78-6.51-19.82-18.65-19.82-13.3,0-20.44,10.26-20.44,22.58s6.69,22.49,20.35,22.49c8.39,0,15.26-3.21,18.83-12.5l-2.05-.71c-2.5,5.89-6.6,10.53-14.19,10.53h0Zm-12.85-27.31c.45-6.52,2.86-12.85,9.73-12.85,7.32,0,8.93,5.71,9.1,11.78v3.3h-18.92c0-.62,0-1.61.09-2.23h0Z"/>
      <path class="cls-1" d="m578.81,172.37c-7.23,0-10.8,6.52-12.68,11.6h-.09v-12.14c-1.43,1.25-2.86,2.41-6.69,2.41h-9.91v2.23h7.59v30.35l-.09,7.5h-7.5v2.23h23.92v-2.23h-7.23l-.09-7.5v-10.89c0-10.09,4.91-20.89,11.16-20.89.54,0,.89.09,1.16.18-1.07.89-1.78,2.23-1.78,3.75,0,2.59,2.05,4.73,4.73,4.73s5-2.32,5-5c0-3.66-2.77-6.34-7.5-6.34h0Z"/>
      <path class="cls-1" d="m601.92,164.52c2.77,0,5.18-2.32,5.18-5.18s-2.41-5.27-5.18-5.27c-2.94,0-5.27,2.41-5.27,5.27s2.41,5.18,5.27,5.18Z"/>
      <path class="cls-1" d="m606.57,206.82v-23.83l.18-10.8c-1.16.89-2.77,2.05-6.69,2.05h-10.09v2.23h7.77l.09,6.52v23.83l-.09,7.59h-7.68v2.14h23.74v-2.14h-7.14l-.09-7.59h0Z"/>
      <path class="cls-1" d="m662.44,206.73v-21.6c0-8.75-4.28-12.5-12.85-12.5-7.14,0-12.41,3.48-15.08,9.37h-.18v-9.82c-1.16.89-2.77,2.05-6.69,2.05h-9.28v2.23h7.05l.09,5.8-.09,24.46-.09,7.68h-7.41v2.05h23.3v-2.05h-6.78l-.09-7.68v-15c0-8.12,4.11-15.98,12.23-15.98,6.07,0,6.96,5,6.96,9.82v21.15l-.18,7.68h-6.69v2.05h22.76v-2.05h-6.87l-.09-7.68h0Z"/>
      <path class="cls-1" d="m709.26,178.26c0,1.96,1.52,3.57,3.48,3.57s3.48-1.7,3.48-3.66c0-3.21-2.95-5.18-5.98-5.18-3.57,0-5.62,2.05-6.78,3.57-2.23-1.88-4.91-4.11-11.51-4.11-10,0-15.71,6.16-15.71,14.1,0,4.73,2.32,7.41,3.48,8.84-2.32,1.34-5.09,3.84-5.09,8.03,0,5.09,3.3,8.57,7.94,9.73-3.66.8-10.71,4.02-10.71,10.62,0,4.73,3.57,12.23,20.17,12.23,9.46,0,21.15-3.3,21.15-15.62,0-10.26-6.87-13.3-15.98-13.83-2.23-.18-9.28-.36-11.25-.45-3.84-.27-7.94-.54-7.94-4.46,0-2.5,1.87-3.84,3.3-4.64,2.14,1.52,5,3.39,10.53,3.39,9.82,0,15.17-6.25,15.17-14.46,0-3.39-.89-5-2.05-7.32.45-.71,1.96-3.39,4.91-3.39.36,0,.63.09.89.18-.98.62-1.52,1.7-1.52,2.86h0Zm-16.51,36.33c7.32.09,17.23.27,17.23,8.57,0,6.61-7.86,10.53-17.85,10.53-7.94,0-15.44-2.95-15.44-10,0-8.03,7.68-9.28,16.07-9.1h0Zm-.98-16.42c-5.8,0-6.78-5.27-6.78-10.89s.18-12.76,6.78-12.76,6.69,7.41,6.69,10.17c0,6.34,0,13.48-6.69,13.48Z"/>
    </g>
    <g>
      <path class="cls-1" d="m186.73,127.21v-54.93c-14.21-5.04-36.61-8.3-61.83-8.3s-46.75,3.25-60.99,8.3v54.93c0,8.34-.13,23.85,7.35,41.3,9.29,21.66,27.04,37.83,52.72,48.04l1.33.54,1.32-.54c25.7-10.22,43.44-26.38,52.74-48.05,7.49-17.45,7.36-33.39,7.36-41.3Z"/>
      <path class="cls-2" d="m125.31,155.71l37.33,30.43c-9.23,10.76-21.71,19.34-37.33,25.63-15.62-6.28-28.1-14.87-37.33-25.63,0,0,37.33-30.43,37.33-30.43Zm56.48-46.06v-33.85c-14.19-4.4-35.1-6.89-56.9-6.89s-41.79,2.51-56.06,6.92v33.82l56.48,46.04,56.49-46.06h0Zm-54.88,28.29h-3.42s-.11-.24-.11-.24c0-.01-.87-1.62-4.57-1.62h-11.17v-18.05h.82v17.23h10.35c3.45,0,4.77,1.31,5.17,1.86h2.7c.39-.56,1.65-1.86,5.09-1.86h10.37v-17.17h.82v17.99h-11.2c-3.7,0-4.47,1.6-4.48,1.62l-.11.24h-.27s0,0,0,0Zm-2.06-3.07v.88c-1.56-2.93-8.65-2.45-14.7-1.85v-16.74c7.57-.39,14.02-1.44,14.7,1.85v15.02c-1.93-2.3-7.71-2.06-13.75-1.47v.48c5.98-.58,12.29-.77,13.75,1.83h0Zm15.6-17.7v16.74c-6.04-.61-13.14-1.08-14.69,1.85v-.88c1.41-2.64,7.76-2.41,13.77-1.83v-.48c-6.07-.58-11.87-.86-13.77,1.47v-15.02c.68-3.3,7.13-2.24,14.69-1.85h0Zm33.47-7.53h-97.16l-6.21-6.52,12.4,4.12c-1.02-3.09-3.85-4.15-5.68-6.8-1.09-1.57-1.45-3.11-1.33-4.72.33.57.93,1.36,1.87,2,.9.62,2.1,1.1,3.74,1.45,2.93.63,4.44,1.56,5.73,2.75l-6.35-11.35,10.93,7.05c-.45-3.25-2.69-4.93-3.81-7.94-.66-1.79-.65-3.39-.13-4.92.18.64.56,1.55,1.31,2.41.71.82,1.76,1.59,3.26,2.34,2.77,1.39,4,2.7,4.97,4.23l-3.37-12.73,8.79,9.49c.35-3.19-1.38-5.39-1.71-8.56-.2-1.9.2-3.46,1.08-4.81.02.66.16,1.64.67,2.65.49.97,1.31,1.97,2.58,3.07,2.42,2.11,3.26,3.72,3.81,5.52l-.09-13.35,6.12,11.32c1.2-2.87-.06-5.51.4-8.64.28-1.89,1.11-3.32,2.29-4.41-.15.64-.25,1.63-.01,2.74.23,1.06.78,2.24,1.73,3.62,1.87,2.7,2.25,4.49,2.32,6.42h.02s3.26-13.08,3.26-13.08l3.13,12.55c1.88-2.58,1.4-5.52,2.65-8.46.74-1.76,1.88-2.8,3.31-3.56-.31.59-.65,1.51-.7,2.65-.04,1.09.19,2.36.77,3.94,1.1,3,1.04,4.81.65,6.64l6.33-11.72-.09,12.88c2.46-1.93,2.63-5,4.56-7.51,1.16-1.52,2.55-2.24,4.12-2.61-.44.49-1.01,1.3-1.33,2.39-.31,1.04-.4,2.34-.23,4.01.33,3.26-.2,5.01-1.06,6.72h.01s9.16-9.89,9.16-9.89l-3.28,12.42c2.75-1.31,3.75-3.95,6.22-5.9,1.5-1.18,3.01-1.76,4.62-1.74-.55.37-1.3,1.01-1.89,1.99-.56.93-.97,2.16-1.22,3.82-.49,3.22-1.42,4.79-2.67,6.23l.05.04,11.33-7.31-6.26,11.19c3.05-.43,4.53-2.87,7.38-4.13,1.74-.77,3.4-.97,4.96-.55-.63.22-1.51.66-2.32,1.46-.77.76-1.48,1.85-2.13,3.4-1.27,2.98-2.56,4.27-4.12,5.35l.07.08,12.79-4.26-6.21,6.52h0Zm-61.71,18.3h.33c1.01,0,1.09-.1,1.09-.77v-2.9c0-.79-.13-.85-.8-.85h-.62v-.34c.69.01,1.41.04,2.06.04.71,0,1.4-.02,2.06-.04v.34h-.62c-.67,0-.8.06-.8.85v2.9c0,.67.08.77,1.09.77h.33v.34c-.64-.01-1.28-.03-2.06-.03-.59,0-1.34.02-2.06.03,0,0,0-.34,0-.34Zm7.19-3.21c-.78-.47-1.33-1.15-1.33-2.02,0-.75.55-2.09,2.32-2.09,1.41,0,2.02.89,2.02,1.68s-.29,1.32-1.48,1.86c1.15.58,1.66,1.2,1.66,2.1,0,1.24-.98,2.15-2.47,2.15-1.34,0-2.19-.92-2.19-1.89,0-1.06.83-1.58,1.47-1.8h0Zm1.99,2.08c0-.66-.31-1.08-1.67-1.91-.6.32-.92.95-.92,1.53,0,1.07.75,1.58,1.35,1.58.85,0,1.24-.62,1.24-1.19Zm-.72-2.81c.52-.41.88-.84.88-1.58,0-.85-.57-1.4-1.23-1.4-.75,0-1.16.6-1.16,1.24,0,.67.47,1.13,1.51,1.74h0Zm7.12-.93h4.7l.09.1-3.82,7.51-.57-.16,3.06-6.27h-3.14l-.27.7h-.33l.29-1.89h0Zm7.28,1.66c-.79-.47-1.33-1.15-1.33-2.02,0-.75.55-2.09,2.32-2.09,1.41,0,2.02.89,2.02,1.68s-.29,1.32-1.48,1.86c1.15.58,1.66,1.2,1.66,2.1,0,1.24-.98,2.15-2.47,2.15-1.34,0-2.19-.92-2.19-1.89,0-1.06.83-1.58,1.47-1.8Zm1.99,2.08c0-.66-.31-1.08-1.67-1.91-.6.32-.92.95-.92,1.53,0,1.07.75,1.58,1.35,1.58.85,0,1.24-.62,1.24-1.19Zm-.72-2.81c.52-.41.88-.84.88-1.58,0-.85-.57-1.4-1.23-1.4-.75,0-1.16.6-1.16,1.24,0,.67.47,1.13,1.51,1.74h0Zm7.22,31.31c.01-8.03,6.49-14.53,14.47-14.52,7.97.01,14.43,6.54,14.41,14.57-.01,8.03-6.49,14.53-14.46,14.52-7.98-.02-14.43-6.7-14.42-14.57h0Zm21.09-9.91c.09.11.14.24.15.39,0,.36-.27.66-.63.67-.36.01-.66-.27-.67-.63,0-.33.23-.61.55-.66l-.74-1.15-1.27.55c.13.11.22.28.22.47,0,.36-.27.66-.63.67-.36,0-.66-.28-.67-.63,0-.28.16-.52.4-.62-.38-.41-1.2-1.01-1.99-1.28.61,1.1.94,2.46.92,3.59.81-.05,3.05.64,3.9,1.27.69-1.02,1.73-1.99,2.88-2.4-.55-.19-1.63-.36-2.42-.25h0Zm-4.06,2.9c-.1,0-.19-.02-.29-.03-.09-.02-.13-.06-.15-.09-.03-.03-.11-.13-.33-.15-.39-.02-.58.27-.6.44-.02.13.02.27.1.37.07.09.17.14.28.15.08,0,.16,0,.25-.04h.01c.16-.09.24-.23.29-.37.02-.06.2-.13.41-.14.04,0,.07-.03.08-.06,0-.04-.01-.08-.05-.08h0Zm-3.91.21c-.08.14-.07.28-.04.39,0,.01.05.08.06.09-.05.22-.04.5.05.89.05.23.25.31.64.32,0,.09.01.19.04.27,0,.01,0,.02,0,.03-.23.06-.45.1-.64.09-.6-.04-.98-.37-.9-.98.01-.11.04-.2.1-.3.03-.05,0-.09-.05-.11-.21-.08-.83.43-.93,1.13-.09.67.29,1.05.84,1.08.3.02.72-.02,1.16-.2.74-.3,1.59-.39,2.11.13-.39-.07-1.41,0-1.69.06-.44.08-.64.98-.16,1.01.37.02,1.73-.06,1.81-.04-.14.59-1.02,1.34-1.88,1.52-.52-.22-2.04-.17-2.73.04-.87-.98-1.5-2.8-1.57-3.4-.03-.28-.04-.59.1-.84.27-.5.83-.45,1.09-.88.14-.23.08-.5.12-.76.01-.11.24-.49-.04-.62-.12.15-.32.26-.57.19-.17-.06-.35-.11-.53-.03-.3.13-.36.5-.59.75-.13.13-.29.07-.25-.14.06-.35.23-.67.18-1.02-.06-.36-.32-.63-.68-.83-.15-.09-.33-.24-.51-.28-.17-.04-.31.02-.32.1.08.06.15.15.15.3,0,.32-.34.49-.34.79-.01.46.31.88.34,1.12.02.18-.13.19-.24.13-.24-.13-.61-.33-.96-.34-.28,0-.47.22-.72.32-.11.04-.56.04-.47.25.25.05.43.21.52.44.07.17.1.32.27.44.27.2.85.15,1.13.19.18.04.39.15.45.52.04.26-.06.55-.18.76-.22.38-.33.79-.23,1.16.1-.14.21-.2.33-.2.24,0,.32.28.14.66-.16.34-.26.73-.1,1.18.07-.15.2-.24.34-.24.22,0,.34.23.18.66-.15.39-.19.76-.03,1.13.06-.16.19-.27.35-.27.24,0,.33.24.42.44.27.67.71,1.01,1.79,1.01-.38.71-3.51.25-4.78.11-.28-.03-.43-.11-.51-.33-.2-.5.27-.91,0-1.44-.13-.26-.34-.32-.56-.47-.1-.06-.39-.43-.58-.27.08.19.06.36-.16.56-.15.13-.29.24-.32.45-.04.35.25.69.34,1,.08.23-.06.32-.25.17-.3-.23-.74-.77-1.2-.77-.32,0-.4.19-.65.3-.11.05-.6.1-.55.34.22.04.4.16.46.45.04.19.08.38.26.51.42.32,1.09.18,1.47.26.16.03.18.17.03.25-.33.2-.8.33-.96.66-.13.27-.05.58-.06.84,0,.12-.16.49.1.56.13-.17.31-.3.61-.26.2.03.36.11.55.02.32-.17.35-.47.53-.75.09-.14.23-.29.46-.29.14,0,.28.03.39.13.25.22.22.76.99.87-.04-.08-.06-.19-.06-.27,0-.16.09-.28.25-.28.17,0,.3.08.46.36.2.35.42.45.77.49-.05-.09-.07-.2-.07-.29,0-.16.09-.27.24-.27.09,0,.26.03.4.27.22.38.39.56.77.6-.11-.22-.02-.51.27-.51s1.03.25,1.58.48c-.02,1.41.9,2.93,2.26,3.85-.05-.27.09-.42.29-.42.55,0,.83,1.3,2.07,1.89-.06-.25.07-.41.25-.41.15,0,.34.09.45.15,1.11.6,2.28,1.36,2.85,1.85,1.15-.35,3.03-1.48,4.26-2.74-.76-.23-2.85-1.8-3.57-2.55-1.31-1.35-1.66-2.76-1.66-3.8,0-.35.05-.68.13-.94.38.23.93.2,1.25-.11-.6-.47-.51-1.39-.31-1.73.33.27.93.19,1.24-.08-.46-.28-.7-1.03-.47-1.66.25.27.85.28,1.21-.02-.48-.4-.72-1.04-.59-1.79.22.3.64.35.96.22-.19-.41-.21-1.08-.26-1.52-.07-.61-.25-1.31-.45-1.68-.66-.57-2.66-1.37-3.91-1.37-.17,0-.34.03-.47.06-.35.08-.6.2-.61.27-.18.29-.65.35-1.06.46-.3.08-1.09.3-1.4.48h0Zm1.92,9.77h-.11c-.08.85-.56,2.15-.85,2.62l.55-.43.35.43.36-.43.51.43c-.28-.5-.73-1.77-.82-2.62h0Zm9.64,4.12c.12-.17.26-.41.26-.41-.54-.82-.94-1.71-.87-2.74.08-1.12.71-1.45,1.19-1.43.44.02.74.36.76.84.38-.32.54-.68.57-1.06.02-.29-.13-.74-.62-.86.89-.82.8-2.47-.11-3.1.13,1.18-.75,1.99-1.54,2.76-1.06,1.03-1.2,2.19-1.01,3.41-.63-1.22-.92-2.37-.84-3.5.09-1.27.73-2.58,1.66-2.52.3.02.61.17.73.44.45-.74.13-1.57-.58-1.63.73-1.75-.45-3.51-1.43-3.89.25.53.38,1.06.33,1.67-.12,1.69-1.59,3.03-1.74,5.53-.16,2.71,1.35,5.07,2.96,6.86,0,0,.13-.17.27-.38h0Zm-6.37-.41h-.1c-.08.85-.56,2.15-.85,2.62l.55-.43.35.43.36-.43.51.43c-.28-.5-.73-1.77-.81-2.62Zm-2.51-10.98c.09-.17.13-.4.13-.53,0-.1,0-.23-.11-.33-.1-.1-.36-.15-.63-.15s-.56.04-.71.14c-.02.07-.05.17-.1.27.5,0,1.03.12,1.42.6Zm-66.81,18.87c7.98.01,14.45-6.49,14.47-14.52.02-8.03-6.44-14.56-14.42-14.57-7.97-.01-14.45,6.49-14.47,14.52-.01,8.03,6.44,14.56,14.42,14.57h0Zm9.36-20.55c.03.44-.19,1.18-.36,1.37-.15.05-.56.09-.87.11-.2,0-.25.03-.37.23-.36.61-.68,1.18-1.06,1.91-.08.85-.08,1.68-.14,2.69-.03.36.02.83-.22,1.24-.31.4-.66.69-.94.89-.05.04-.13.14.1.06.14-.04.81-.38.95-.42.47-.15,1.02-.74,1.77,0,.36.35.91.68,1.57,1.13.24.16.37.13.7.42.26.23.39.74.54,1,.4.69.45,1.11.44,1.27-.25.14-1.2.15-1.58.04-.13-.24-.12-.6-.19-.78-.13-.34-.26-.5-.43-.62-.29-.2-.5-.44-.81-.61-.72-.41-.82-.51-1.36-.24-.49.24-1.26.93-2.05,1.35-.63.31-2.36-.01-2.83-.44.16.47,1.13,1,1.85,1.34-.1.25-.36,1.59-.89,2.36-.04-.19-.15-.33-.32-.33-.49,0-.39,1.04-.86,1.58-.03-.17-.14-.34-.34-.34-.45,0-.4.98-.92,1.49-.06-.22-.18-.37-.39-.37s-.39.2-.57.39c-.62.66-.91,1.04-1.5,1.66-1.98-.12-4.9-1.49-5.94-2.74,1.87-2,3.56-4.02,4.38-4.6.4-1.19,1.58-3.69,2.01-4.84-.06-.11-.11-.22-.18-.33-.29.17-.64.2-.79.13.12-.32.13-.83,0-1.23-.21.12-.51.19-.72.1.13-.39.16-.84.03-1.21,0,0,0,0,0,0-.27.12-.52.16-.71.09.11-.44.22-.85.08-1.4-.01-.04-.03-.08-.04-.12-.36.18-1.62.41-1.91.29-.18-.14.9-1.24,1.81-2.15-.85.38-1.97.78-3.68,1.12-.97.2-3.01.56-4.46.3-.24-.04-.19-.36.05-.36.76,0,1.79-.04,2.54-.23.2-.05.52-.22-.06-.32-.62-.11-1.75-.29-2.31-.48-.2-.07-.09-.3.08-.29.69.05,1.51.2,2.1.22.34.01.5-.03.23-.26-.16-.13-.64-.44-1.14-.74-.11-.06-.09-.22.04-.24.39-.06,1.93.9,2.96,1.18.23.06.43.1.62.07.21-.04.24-.16.22-.25-.04-.24-1.06-.73-1.55-1.06-.2-.13,0-.29.22-.22.55.16,1.8.82,2.37.89.45.05.62-.07.59-.2-.05-.31-1.79-1.12-2.21-1.43-.1-.08.04-.22.16-.2.89.11,2.62,1.31,3.38,1.17.08-.02.19-.08.17-.19-.06-.34-1.51-1.09-1.86-1.34-.18-.12.03-.24.28-.18.53.12,1.35.54,1.84.79.23.11.43.16.67.12.32-.06.59-.38.46-1.07-.13-.7-.78-.97-1.23-1.1-.5-.14-.13-.37.3-.29.83.16,1.44.55,1.58,1.29.02.12.03.29.03.44.02.4.3.26.54-.08.46-.64.55-1.28.48-1.71-.13-.76-1.2-1.06-1.2-1.24,0-.06.06-.11.12-.12.41-.07,1.53.41,1.69,1.31.08.48,0,.74-.09,1.19-.02.1.05.18.2.03.53-.54.98-1.5.82-2.37-.16-.93-1.12-1.25-1.15-1.41,0-.04.07-.1.14-.11.39-.07,1.45.56,1.65,1.58.18.91-.25,2.8-3.08,4.31,1.19-.26,1.52-.22,1.64-.08,1.37-.37,2.23-.64,2.59-.56.38.59-.43.82-.44,1.26.01.42.95-.28.79.39-.29.52-.66.56-1.08.72-.22.15-1.06.75-1.51,1.12,1.36.95,2.76,2.39,2.85,2.46.08.21.42.81.8,1.71,0,.02.02.03.03.05.19-.58.51-1.56.64-2.05.12-.43.08-.57.22-.82.11-.21.5-.57.84-1.08.3-.45.8-1.15.97-1.42.29-.44.57-.35,1.1-.49.2-.05.8-.09,1.04-.08h0Zm-10.72.07c.07-.06.17-.17.28-.22.22-.13.53-.19.73-.23.1.15.06.4-.11.59-.17.2-.37.11-.55.03-.13-.06-.23-.06-.28-.06-.07,0-.11-.07-.06-.11h0Zm48.85,37.47c.12-.11.44-.5.31-.58-.21-.11-.63.33-1.28.33s-1.33-.4-1.55-1.23c-.26-.96.18-1.66.9-2.28.25-.2.79-.53.96-.83-.04-.52.52-1.38.53-1.84.01-.53.53-.75,1-1.45.26-.39.44-.77.24-.98-.58.46-2.21,1.75-3.2,1.37-.46-.17-.49-.18-.89.11-.31.23-.74.34-1.27.26-.87-.13-1.44-.71-1.44-1.12-.54-.05-1.11.97-1.4,1.36-.39.53-.82.91-1.34,1.31-.42.33-1.09,1.04-1.61.68-.36-.25-.4-1.11-.37-1.6.04-.81.13-1.4.23-1.91.09-.46.23-1.01.35-1.45.16-.53.46-1.1.64-1.62.08-.23.7-1.3.7-1.71,0-.11-.07-.17-.19-.17-.26,0-.65.27-1,.47-.29.17-.57.29-.97.29-.45,0-.82-.19-1.11-.72-.49-.89-.49-2.79-.74-3.37-.49.26-.88.12-1.19-.31-.37-.51-.58-1.13-.81-1.74-.09-.24-.27-.93-.37-1.31-.28.58-.32,1.19-.5,1.71-.1.3-.17.71-.25,1.05-.1.4-.43,1.08-.83,1.08-.22,0-.36-.23-.41-.36-.13,0-.25.15-.34.4-.16.43-.16.79-.27,1.22-.2.83-.32,1.95-1.34,2.09-.43.06-.98-.27-1.34-.44-.87-.42-.52.78-.28,1.24.25.46.61,1.02.7,1.68.14,1.09.35,1.6.58,2.64.15.64.39,1.52.4,2.19,0,.81-.59,1.28-1.55.44-.28-.24-.89-1-1.42-1.15-.72-.21-1.46-.98-1.73-1.37-.16.02-.51.26-.65.39-.8.74-1.69.95-3.08.7-.71-.13-.96-.3-1.6-.62-.51-.26-1.02-.5-1.36-1.01-.09-.13-.15-.4-.36-.36-.22.04-.25.48-.24.64,0,.52.19,1.06.43,1.51.28.51.76.71,1.13,1.11.33.36.17.85-.38.63.01.41.46.47.74.68.3.23.44.54.61.86.21.4.79.75.8,1.29,0,.39-.12.65-.45.83-.42.22-.87.17-1.33-.07-.24.75.62,1.29,1.2,1.59.31.16.67.27.95.47.3.21.69.53.63.76.44.18.93-.01,1.65.09.44.06,1.07.39,1.41.67.36.3.58.68.58,1.15,0,1.68-2.88,2.17-2.88,2.17,1.19.45,2.73,1.26,4.04.93.25-.06.66-.29.95-.14.25.14.45.51.25.87.22.23.67.3,1.07.31.32,0,.69-.04.98-.17.35-.16.47-.42.77-.61.29-.18.6-.11.91-.25.49-.21.72-.77,1.33-.81l-.22,9.89h1.88c-.03-1-.06-2-.09-3-.05-1.71-.09-3.42-.16-5.13-.02-.56-.05-1.12,0-1.68.53.17.77.82,1.24,1.1.53.32,1.86,1.1,2.44.54-.09-.22-.43-.85,0-.78.13.02.41.22.54.29.31.17.61.22.96.18.47-.05.91-.08,1.48.03.36.06.58.09,1.02,0,.32-.07.59-.24.88-.36.53-.22,1.11-.11,1.52-.55-.43,0-1.23-.31-1.4-.43-.5-.32-.89-.76-1.12-1.31-.23-.54-.39-1.23.35-1.39.43-.09.33-.01.6-.3.26-.28.72-.71,1.11-.85.46-.16,1.85-.09,2.01-.68-.06-.06-.17-.2-.15-.31.02-.14.12-.19.3-.28.26-.13.59-.25.87-.34.4-.12.97-.35,1.32-.65h0Z"/>
    </g>
  </g>
</svg>